Lilex-Bold.ufo
<glyph name="exclam" format="1">
  <unicode hex="0021"/>
  <advance width="1200" height="1560"/>
  <outline>
    <contour>
      <point x="648" y="486" type="line"/>
      <point x="762" y="990" type="line"/>
      <point x="762" y="1396" type="line"/>
      <point x="438" y="1396" type="line"/>
      <point x="438" y="990" type="line"/>
      <point x="552" y="486" type="line"/>
    </contour>
    <contour>
      <point x="600" y="-24" type="curve" smooth="yes"/>
      <point x="742" y="-24"/>
      <point x="796" y="46"/>
      <point x="796" y="132" type="curve" smooth="yes" name="hr01"/>
      <point x="796" y="196" type="line" smooth="yes"/>
      <point x="796" y="280"/>
      <point x="742" y="350"/>
      <point x="600" y="350" type="curve" smooth="yes"/>
      <point x="458" y="350"/>
      <point x="404" y="280"/>
      <point x="404" y="196" type="curve" smooth="yes"/>
      <point x="404" y="132" type="line" smooth="yes"/>
      <point x="404" y="46"/>
      <point x="458" y="-24"/>
    </contour>
  </outline>
</glyph>
<glyph name="dollar" format="1">
  <unicode hex="0024"/>
  <advance width="1200" height="1560"/>
  <outline>
    <contour>
      <point x="506" y="-226" type="line" name="hr00"/>
      <point x="734" y="-226" type="line"/>
      <point x="734" y="-10" type="line"/>
      <point x="992" y="36"/>
      <point x="1136" y="204"/>
      <point x="1136" y="424" type="curve" smooth="yes"/>
      <point x="1136" y="626"/>
      <point x="1014" y="770"/>
      <point x="760" y="818" type="curve" smooth="yes"/>
      <point x="714" y="826" type="line"/>
      <point x="714" y="1160" type="line"/>
      <point x="798" y="1142"/>
      <point x="870" y="1102"/>
      <point x="926" y="1040" type="curve"/>
      <point x="1098" y="1232" type="line"/>
      <point x="1018" y="1324"/>
      <point x="900" y="1392"/>
      <point x="734" y="1414" type="curve"/>
      <point x="734" y="1622" type="line"/>
      <point x="506" y="1622" type="line"/>
      <point x="506" y="1412" type="line"/>
      <point x="248" y="1378"/>
      <point x="104" y="1228"/>
      <point x="104" y="1004" type="curve" smooth="yes"/>
      <point x="104" y="800"/>
      <point x="224" y="648"/>
      <point x="480" y="602" type="curve" smooth="yes"/>
      <point x="526" y="594" type="line"/>
      <point x="526" y="226" type="line"/>
      <point x="418" y="242"/>
      <point x="318" y="292"/>
      <point x="234" y="382" type="curve"/>
      <point x="60" y="192" type="line"/>
      <point x="154" y="74"/>
      <point x="308" y="-4"/>
      <point x="506" y="-20" type="curve"/>
    </contour>
    <contour>
      <point x="386" y="1014" type="curve" smooth="yes"/>
      <point x="386" y="1098"/>
      <point x="428" y="1150"/>
      <point x="526" y="1166" type="curve"/>
      <point x="526" y="864" type="line"/>
      <point x="428" y="890"/>
      <point x="386" y="930"/>
    </contour>
    <contour>
      <point x="856" y="404" type="curve" smooth="yes"/>
      <point x="856" y="312"/>
      <point x="810" y="250"/>
      <point x="714" y="228" type="curve"/>
      <point x="714" y="558" type="line"/>
      <point x="812" y="534"/>
      <point x="856" y="494"/>
    </contour>
  </outline>
</glyph>
<glyph name="hyphen" format="1">
  <unicode hex="002D"/>
  <advance width="1200" height="1560"/>
  <outline>
    <contour>
      <point x="920" y="468" type="line" name="hr00"/>
      <point x="920" y="752" type="line"/>
      <point x="280" y="752" type="line"/>
      <point x="280" y="468" type="line"/>
    </contour>
  </outline>
</glyph>
<glyph name="five" format="1">
  <unicode hex="0035"/>
  <advance width="1200" height="1560"/>
  <outline>
    <contour>
      <point x="1050" y="1396" type="line" name="hr00"/>
      <point x="184" y="1396" type="line"/>
      <point x="132" y="606" type="line"/>
      <point x="378" y="572" type="line"/>
      <point x="416" y="614"/>
      <point x="488" y="670"/>
      <point x="600" y="670" type="curve" smooth="yes"/>
      <point x="734" y="670"/>
      <point x="818" y="590"/>
      <point x="818" y="460" type="curve" smooth="yes"/>
      <point x="818" y="444" type="line" smooth="yes"/>
      <point x="818" y="308"/>
      <point x="740" y="220"/>
      <point x="592" y="220" type="curve"/>
      <point x="444" y="220"/>
      <point x="364" y="308"/>
      <point x="302" y="416" type="curve"/>
      <point x="84" y="244" type="line"/>
      <point x="170" y="104"/>
      <point x="316" y="-24"/>
      <point x="590" y="-24" type="curve" smooth="yes"/>
      <point x="938" y="-24"/>
      <point x="1134" y="186"/>
      <point x="1134" y="468" type="curve" smooth="yes"/>
      <point x="1134" y="748"/>
      <point x="938" y="912"/>
      <point x="708" y="912" type="curve" smooth="yes"/>
      <point x="536" y="912"/>
      <point x="448" y="822"/>
      <point x="390" y="692" type="curve"/>
      <point x="372" y="692" type="line"/>
      <point x="404" y="1134" type="line"/>
      <point x="1050" y="1134" type="line"/>
    </contour>
  </outline>
</glyph>
<glyph name="question" format="1">
  <unicode hex="003F"/>
  <advance width="1200" height="1560"/>
  <outline>
    <contour>
      <point x="696" y="466" type="line"/>
      <point x="696" y="610" type="line"/>
      <point x="888" y="642"/>
      <point x="1054" y="784"/>
      <point x="1054" y="1010" type="curve" smooth="yes"/>
      <point x="1054" y="1252"/>
      <point x="866" y="1420"/>
      <point x="582" y="1420" type="curve" smooth="yes"/>
      <point x="306" y="1420"/>
      <point x="168" y="1260"/>
      <point x="122" y="1100" type="curve"/>
      <point x="366" y="998" type="line"/>
      <point x="392" y="1098"/>
      <point x="464" y="1168"/>
      <point x="572" y="1168" type="curve" smooth="yes"/>
      <point x="668" y="1168"/>
      <point x="742" y="1122"/>
      <point x="742" y="1012" type="curve" smooth="yes"/>
      <point x="742" y="984" type="line" smooth="yes"/>
      <point x="742" y="832"/>
      <point x="616" y="780"/>
      <point x="416" y="772" type="curve"/>
      <point x="416" y="466" type="line"/>
    </contour>
    <contour>
      <point x="560" y="-24" type="curve" smooth="yes"/>
      <point x="702" y="-24"/>
      <point x="758" y="46"/>
      <point x="758" y="132" type="curve" smooth="yes" name="hr01"/>
      <point x="758" y="196" type="line" smooth="yes"/>
      <point x="758" y="280"/>
      <point x="702" y="350"/>
      <point x="560" y="350" type="curve" smooth="yes"/>
      <point x="420" y="350"/>
      <point x="364" y="280"/>
      <point x="364" y="196" type="curve" smooth="yes"/>
      <point x="364" y="132" type="line" smooth="yes"/>
      <point x="364" y="46"/>
      <point x="420" y="-24"/>
    </contour>
  </outline>
</glyph>
<glyph name="B" format="1">
  <unicode hex="0042"/>
  <advance width="1200" height="1560"/>
  <outline>
    <contour>
      <point x="154" y="0" type="line"/>
      <point x="690" y="0" type="line" smooth="yes"/>
      <point x="954" y="0"/>
      <point x="1112" y="150"/>
      <point x="1112" y="384" type="curve" smooth="yes"/>
      <point x="1112" y="572"/>
      <point x="1012" y="676"/>
      <point x="840" y="718" type="curve"/>
      <point x="840" y="730" type="line"/>
      <point x="986" y="772"/>
      <point x="1068" y="866"/>
      <point x="1068" y="1024" type="curve" smooth="yes" name="hr01"/>
      <point x="1068" y="1252"/>
      <point x="916" y="1396"/>
      <point x="644" y="1396" type="curve" smooth="yes"/>
      <point x="154" y="1396" type="line"/>
    </contour>
    <contour>
      <point x="446" y="210" type="line"/>
      <point x="446" y="604" type="line"/>
      <point x="598" y="604" type="line" smooth="yes"/>
      <point x="740" y="604"/>
      <point x="806" y="562"/>
      <point x="806" y="436" type="curve" smooth="yes" name="hr02"/>
      <point x="806" y="378" type="line" smooth="yes"/>
      <point x="806" y="250"/>
      <point x="740" y="210"/>
      <point x="598" y="210" type="curve" smooth="yes"/>
    </contour>
    <contour>
      <point x="446" y="804" type="line"/>
      <point x="446" y="1186" type="line"/>
      <point x="560" y="1186" type="line" smooth="yes"/>
      <point x="700" y="1186"/>
      <point x="762" y="1148"/>
      <point x="762" y="1026" type="curve" smooth="yes" name="hr03"/>
      <point x="762" y="966" type="line" smooth="yes"/>
      <point x="762" y="844"/>
      <point x="700" y="804"/>
      <point x="560" y="804" type="curve" smooth="yes"/>
    </contour>
    <contour>
      <point x="600" y="0" type="move" name="bottom"/>
    </contour>
    <contour>
      <point x="590" y="1396" type="move" name="top"/>
    </contour>
  </outline>
</glyph>
<glyph name="E" format="1">
  <unicode hex="0045"/>
  <advance width="1200" height="1560"/>
  <outline>
    <contour>
      <point x="1052" y="0" type="line" name="hr00"/>
      <point x="1052" y="246" type="line"/>
      <point x="460" y="246" type="line"/>
      <point x="460" y="584" type="line"/>
      <point x="1032" y="584" type="line"/>
      <point x="1032" y="830" type="line"/>
      <point x="460" y="830" type="line"/>
      <point x="460" y="1150" type="line"/>
      <point x="1052" y="1150" type="line"/>
      <point x="1052" y="1396" type="line"/>
      <point x="160" y="1396" type="line"/>
      <point x="160" y="0" type="line"/>
    </contour>
    <contour>
      <point x="606" y="0" type="move" name="bottom"/>
    </contour>
    <contour>
      <point x="1052" y="0" type="move" name="bottomright"/>
    </contour>
    <contour>
      <point x="606" y="1396" type="move" name="top"/>
    </contour>
  </outline>
</glyph>
<glyph name="H" format="1">
  <unicode hex="0048"/>
  <advance width="1200" height="1560"/>
  <outline>
    <contour>
      <point x="776" y="0" type="line" name="hr00"/>
      <point x="1078" y="0" type="line"/>
      <point x="1078" y="1396" type="line"/>
      <point x="776" y="1396" type="line"/>
      <point x="776" y="830" type="line"/>
      <point x="424" y="830" type="line"/>
      <point x="424" y="1396" type="line"/>
      <point x="122" y="1396" type="line"/>
      <point x="122" y="0" type="line"/>
      <point x="424" y="0" type="line"/>
      <point x="424" y="584" type="line"/>
      <point x="776" y="584" type="line"/>
    </contour>
    <contour>
      <point x="600" y="0" type="move" name="bottom"/>
    </contour>
    <contour>
      <point x="600" y="1396" type="move" name="top"/>
    </contour>
  </outline>
</glyph>
<glyph name="K" format="1">
  <unicode hex="004B"/>
  <advance width="1200" height="1560"/>
  <outline>
    <contour>
      <point x="868" y="0" type="line" name="hr00"/>
      <point x="1206" y="0" type="line"/>
      <point x="768" y="806" type="line"/>
      <point x="1186" y="1396" type="line"/>
      <point x="850" y="1396" type="line"/>
      <point x="604" y="1044" type="line"/>
      <point x="452" y="812" type="line"/>
      <point x="436" y="812" type="line"/>
      <point x="436" y="1396" type="line"/>
      <point x="136" y="1396" type="line"/>
      <point x="136" y="0" type="line"/>
      <point x="436" y="0" type="line"/>
      <point x="436" y="408" type="line"/>
      <point x="560" y="582" type="line"/>
    </contour>
    <contour>
      <point x="650" y="0" type="move" name="bottom"/>
    </contour>
    <contour>
      <point x="634" y="1396" type="move" name="top"/>
    </contour>
  </outline>
</glyph>
<glyph name="M" format="1">
  <unicode hex="004D"/>
  <advance width="1200" height="1560"/>
  <outline>
    <contour>
      <point x="862" y="0" type="line" name="hr00"/>
      <point x="1122" y="0" type="line"/>
      <point x="1122" y="1396" type="line"/>
      <point x="792" y="1396" type="line"/>
      <point x="620" y="926" type="line"/>
      <point x="604" y="926" type="line"/>
      <point x="432" y="1396" type="line"/>
      <point x="78" y="1396" type="line"/>
      <point x="78" y="0" type="line"/>
      <point x="338" y="0" type="line"/>
      <point x="338" y="622" type="line"/>
      <point x="322" y="1012" type="line"/>
      <point x="340" y="1012" type="line"/>
      <point x="600" y="294" type="line"/>
      <point x="860" y="1012" type="line"/>
      <point x="878" y="1012" type="line"/>
      <point x="862" y="622" type="line"/>
    </contour>
    <contour>
      <point x="600" y="0" type="move" name="bottom"/>
    </contour>
    <contour>
      <point x="600" y="1396" type="move" name="top"/>
    </contour>
  </outline>
</glyph>
<glyph name="N" format="1">
  <unicode hex="004E"/>
  <advance width="1200" height="1560"/>
  <outline>
    <contour>
      <point x="718" y="0" type="line" name="hr00"/>
      <point x="1078" y="0" type="line"/>
      <point x="1078" y="1396" type="line"/>
      <point x="822" y="1396" type="line"/>
      <point x="822" y="468" type="line"/>
      <point x="800" y="468" type="line"/>
      <point x="482" y="1396" type="line"/>
      <point x="122" y="1396" type="line"/>
      <point x="122" y="0" type="line"/>
      <point x="378" y="0" type="line"/>
      <point x="378" y="928" type="line"/>
      <point x="400" y="928" type="line"/>
    </contour>
    <contour>
      <point x="600" y="0" type="move" name="bottom"/>
    </contour>
    <contour>
      <point x="600" y="1396" type="move" name="top"/>
    </contour>
  </outline>
</glyph>
<glyph name="R" format="1">
  <unicode hex="0052"/>
  <advance width="1200" height="1560"/>
  <outline>
    <contour>
      <point x="448" y="518" type="line" name="hr00"/>
      <point x="586" y="518" type="line"/>
      <point x="820" y="0" type="line"/>
      <point x="1148" y="0" type="line"/>
      <point x="874" y="558" type="line"/>
      <point x="1030" y="602"/>
      <point x="1120" y="756"/>
      <point x="1120" y="952" type="curve" smooth="yes"/>
      <point x="1120" y="1222"/>
      <point x="966" y="1396"/>
      <point x="692" y="1396" type="curve" smooth="yes"/>
      <point x="152" y="1396" type="line"/>
      <point x="152" y="0" type="line"/>
      <point x="448" y="0" type="line"/>
    </contour>
    <contour>
      <point x="448" y="750" type="line"/>
      <point x="448" y="1154" type="line"/>
      <point x="620" y="1154" type="line" smooth="yes"/>
      <point x="760" y="1154"/>
      <point x="808" y="1104"/>
      <point x="808" y="982" type="curve" smooth="yes"/>
      <point x="808" y="922" type="line" smooth="yes"/>
      <point x="808" y="800"/>
      <point x="760" y="750"/>
      <point x="620" y="750" type="curve" smooth="yes"/>
    </contour>
    <contour>
      <point x="630" y="0" type="move" name="bottom"/>
    </contour>
    <contour>
      <point x="608" y="1396" type="move" name="top"/>
    </contour>
  </outline>
</glyph>
<glyph name="S" format="1">
  <unicode hex="0053"/>
  <advance width="1200" height="1560"/>
  <outline>
    <contour>
      <point x="578" y="-24" type="curve" smooth="yes" name="hr00"/>
      <point x="928" y="-24"/>
      <point x="1112" y="168"/>
      <point x="1112" y="430" type="curve" smooth="yes"/>
      <point x="1112" y="650"/>
      <point x="982" y="782"/>
      <point x="758" y="822" type="curve" smooth="yes"/>
      <point x="612" y="848" type="line" smooth="yes"/>
      <point x="476" y="872"/>
      <point x="420" y="914"/>
      <point x="420" y="1010" type="curve" smooth="yes"/>
      <point x="420" y="1120"/>
      <point x="488" y="1176"/>
      <point x="622" y="1176" type="curve" smooth="yes"/>
      <point x="748" y="1176"/>
      <point x="852" y="1126"/>
      <point x="926" y="1044" type="curve"/>
      <point x="1096" y="1234" type="line"/>
      <point x="998" y="1348"/>
      <point x="834" y="1420"/>
      <point x="620" y="1420" type="curve" smooth="yes"/>
      <point x="304" y="1420"/>
      <point x="118" y="1264"/>
      <point x="118" y="996" type="curve" smooth="yes"/>
      <point x="118" y="792"/>
      <point x="224" y="638"/>
      <point x="474" y="596" type="curve" smooth="yes"/>
      <point x="620" y="572" type="line" smooth="yes"/>
      <point x="756" y="550"/>
      <point x="808" y="504"/>
      <point x="808" y="406" type="curve" smooth="yes"/>
      <point x="808" y="286"/>
      <point x="730" y="220"/>
      <point x="588" y="220" type="curve" smooth="yes"/>
      <point x="464" y="220"/>
      <point x="338" y="272"/>
      <point x="236" y="384" type="curve"/>
      <point x="62" y="192" type="line"/>
      <point x="168" y="60"/>
      <point x="346" y="-24"/>
    </contour>
    <contour>
      <point x="584" y="0" type="move" name="bottom"/>
    </contour>
    <contour>
      <point x="610" y="1396" type="move" name="top"/>
    </contour>
  </outline>
</glyph>
<glyph name="U" format="1">
  <unicode hex="0055"/>
  <advance width="1200" height="1560"/>
  <outline>
    <contour>
      <point x="110" y="1396" type="line" name="hr00"/>
      <point x="110" y="552" type="line" smooth="yes"/>
      <point x="110" y="170"/>
      <point x="194" y="-24"/>
      <point x="600" y="-24" type="curve" smooth="yes"/>
      <point x="1006" y="-24"/>
      <point x="1090" y="170"/>
      <point x="1090" y="552" type="curve" smooth="yes"/>
      <point x="1090" y="1396" type="line"/>
      <point x="790" y="1396" type="line"/>
      <point x="790" y="512" type="line" smooth="yes"/>
      <point x="790" y="334"/>
      <point x="776" y="218"/>
      <point x="600" y="218" type="curve" smooth="yes"/>
      <point x="424" y="218"/>
      <point x="410" y="334"/>
      <point x="410" y="512" type="curve" smooth="yes"/>
      <point x="410" y="1396" type="line"/>
    </contour>
    <contour>
      <point x="600" y="0" type="move" name="bottom"/>
    </contour>
    <contour>
      <point x="808" y="0" type="move" name="bottomright"/>
    </contour>
    <contour>
      <point x="600" y="1396" type="move" name="top"/>
    </contour>
  </outline>
</glyph>
<glyph name="V" format="1">
  <unicode hex="0056"/>
  <advance width="1200" height="1560"/>
  <outline>
    <contour>
      <point x="812" y="0" type="line" name="hr00"/>
      <point x="1182" y="1396" type="line"/>
      <point x="864" y="1396" type="line"/>
      <point x="698" y="686" type="line"/>
      <point x="614" y="284" type="line"/>
      <point x="598" y="284" type="line"/>
      <point x="516" y="686" type="line"/>
      <point x="352" y="1396" type="line"/>
      <point x="18" y="1396" type="line"/>
      <point x="388" y="0" type="line"/>
    </contour>
    <contour>
      <point x="600" y="0" type="move" name="bottom"/>
    </contour>
    <contour>
      <point x="600" y="1396" type="move" name="top"/>
    </contour>
  </outline>
</glyph>
<glyph name="bracketleft" format="1">
  <unicode hex="005B"/>
  <advance width="1200" height="1560"/>
  <outline>
    <contour>
      <point x="1014" y="-276" type="line" name="hr00"/>
      <point x="1014" y="-78" type="line"/>
      <point x="604" y="-78" type="line"/>
      <point x="604" y="1322" type="line"/>
      <point x="1014" y="1322" type="line"/>
      <point x="1014" y="1520" type="line"/>
      <point x="366" y="1520" type="line"/>
      <point x="366" y="-276" type="line"/>
    </contour>
  </outline>
</glyph>
<glyph name="backslash" format="1">
  <unicode hex="005C"/>
  <advance width="1200" height="1560"/>
  <outline>
    <contour>
      <point x="1054" y="-276" type="line" name="hr00"/>
      <point x="412" y="1520" type="line"/>
      <point x="146" y="1520" type="line"/>
      <point x="788" y="-276" type="line"/>
    </contour>
  </outline>
</glyph>
<glyph name="asciicircum" format="1">
  <unicode hex="005E"/>
  <advance width="1200" height="1560"/>
  <outline>
    <contour>
      <point x="1146" y="586" type="line" name="hr00"/>
      <point x="758" y="1396" type="line"/>
      <point x="444" y="1396" type="line"/>
      <point x="54" y="586" type="line"/>
      <point x="276" y="478" type="line"/>
      <point x="582" y="1124" type="line"/>
      <point x="606" y="1124" type="line"/>
      <point x="912" y="478" type="line"/>
    </contour>
  </outline>
</glyph>
<glyph name="j" format="1">
  <unicode hex="006A"/>
  <advance width="1200" height="1560"/>
  <outline>
    <contour>
      <point x="184" y="-400" type="line"/>
      <point x="562" y="-400" type="line" smooth="yes"/>
      <point x="774" y="-400"/>
      <point x="876" y="-276"/>
      <point x="876" y="-102" type="curve" smooth="yes"/>
      <point x="876" y="1032" type="line"/>
      <point x="180" y="1032" type="line"/>
      <point x="180" y="802" type="line"/>
      <point x="580" y="802" type="line"/>
      <point x="580" y="-170" type="line"/>
      <point x="184" y="-170" type="line"/>
    </contour>
    <contour>
      <point x="728" y="1164" type="curve" smooth="yes"/>
      <point x="858" y="1164"/>
      <point x="906" y="1226"/>
      <point x="906" y="1304" type="curve" smooth="yes" name="hr01"/>
      <point x="906" y="1362" type="line" smooth="yes"/>
      <point x="906" y="1442"/>
      <point x="858" y="1502"/>
      <point x="728" y="1502" type="curve" smooth="yes"/>
      <point x="596" y="1502"/>
      <point x="550" y="1442"/>
      <point x="550" y="1362" type="curve" smooth="yes"/>
      <point x="550" y="1304" type="line" smooth="yes"/>
      <point x="550" y="1226"/>
      <point x="596" y="1164"/>
    </contour>
  </outline>
</glyph>
<glyph name="o" format="1">
  <unicode hex="006F"/>
  <advance width="1200" height="1560"/>
  <outline>
    <contour>
      <point x="600" y="-24" type="curve" smooth="yes" name="hr00"/>
      <point x="922" y="-24"/>
      <point x="1118" y="182"/>
      <point x="1118" y="516" type="curve" smooth="yes"/>
      <point x="1118" y="850"/>
      <point x="922" y="1056"/>
      <point x="600" y="1056" type="curve" smooth="yes"/>
      <point x="278" y="1056"/>
      <point x="82" y="850"/>
      <point x="82" y="516" type="curve" smooth="yes"/>
      <point x="82" y="182"/>
      <point x="278" y="-24"/>
    </contour>
    <contour>
      <point x="600" y="196" type="curve" smooth="yes"/>
      <point x="468" y="196"/>
      <point x="388" y="282"/>
      <point x="388" y="434" type="curve" smooth="yes"/>
      <point x="388" y="598" type="line"/>
      <point x="388" y="750"/>
      <point x="468" y="836"/>
      <point x="600" y="836" type="curve" smooth="yes"/>
      <point x="732" y="836"/>
      <point x="812" y="750"/>
      <point x="812" y="598" type="curve" smooth="yes"/>
      <point x="812" y="434" type="line" smooth="yes"/>
      <point x="812" y="282"/>
      <point x="732" y="196"/>
    </contour>
    <contour>
      <point x="600" y="0" type="move" name="bottom"/>
    </contour>
    <contour>
      <point x="600" y="1032" type="move" name="top"/>
    </contour>
  </outline>
</glyph>
<glyph name="r" format="1">
  <unicode hex="0072"/>
  <advance width="1200" height="1560"/>
  <outline>
    <contour>
      <point x="148" y="0" type="line"/>
      <point x="1022" y="0" type="line"/>
      <point x="1022" y="230" type="line"/>
      <point x="682" y="230" type="line"/>
      <point x="682" y="536" type="line" smooth="yes"/>
      <point x="682" y="660"/>
      <point x="758" y="760"/>
      <point x="904" y="760" type="curve" smooth="yes"/>
      <point x="1124" y="760" type="line"/>
      <point x="1124" y="1032" type="line"/>
      <point x="1026" y="1032" type="line" smooth="yes"/>
      <point x="822" y="1032"/>
      <point x="734" y="892"/>
      <point x="696" y="740" type="curve"/>
      <point x="682" y="740" type="line"/>
      <point x="682" y="1032" type="line"/>
      <point x="148" y="1032" type="line"/>
      <point x="148" y="802" type="line" name="hr01"/>
      <point x="386" y="802" type="line"/>
      <point x="386" y="230" type="line"/>
      <point x="148" y="230" type="line"/>
    </contour>
    <contour>
      <point x="534" y="0" type="move" name="bottom"/>
    </contour>
    <contour>
      <point x="650" y="1032" type="move" name="top"/>
    </contour>
  </outline>
</glyph>
<glyph name="t" format="1">
  <unicode hex="0074"/>
  <advance width="1200" height="1560"/>
  <outline>
    <contour>
      <point x="1062" y="0" type="line" name="hr00"/>
      <point x="1062" y="230" type="line"/>
      <point x="660" y="230" type="line"/>
      <point x="660" y="802" type="line"/>
      <point x="1062" y="802" type="line"/>
      <point x="1062" y="1032" type="line"/>
      <point x="660" y="1032" type="line"/>
      <point x="660" y="1396" type="line"/>
      <point x="388" y="1396" type="line"/>
      <point x="388" y="1154" type="line" smooth="yes"/>
      <point x="388" y="1062"/>
      <point x="354" y="1032"/>
      <point x="266" y="1032" type="curve" smooth="yes"/>
      <point x="84" y="1032" type="line"/>
      <point x="84" y="802" type="line"/>
      <point x="364" y="802" type="line"/>
      <point x="364" y="298" type="line" smooth="yes"/>
      <point x="364" y="124"/>
      <point x="466" y="0"/>
      <point x="680" y="0" type="curve" smooth="yes"/>
    </contour>
    <contour>
      <point x="722" y="0" type="move" name="bottom"/>
    </contour>
    <contour>
      <point x="792" y="1560" type="move" name="topright"/>
    </contour>
  </outline>
</glyph>
<glyph name="v" format="1">
  <unicode hex="0076"/>
  <advance width="1200" height="1560"/>
  <outline>
    <contour>
      <point x="776" y="0" type="line" name="hr00"/>
      <point x="1146" y="1032" type="line"/>
      <point x="846" y="1032" type="line"/>
      <point x="712" y="590" type="line"/>
      <point x="614" y="246" type="line"/>
      <point x="598" y="246" type="line"/>
      <point x="500" y="590" type="line"/>
      <point x="366" y="1032" type="line"/>
      <point x="54" y="1032" type="line"/>
      <point x="424" y="0" type="line"/>
    </contour>
    <contour>
      <point x="600" y="0" type="move" name="bottom"/>
    </contour>
    <contour>
      <point x="600" y="1032" type="move" name="top"/>
    </contour>
  </outline>
</glyph>
<glyph name="y" format="1">
  <unicode hex="0079"/>
  <advance width="1200" height="1560"/>
  <outline>
    <contour>
      <point x="706" y="598" type="line" name="hr00"/>
      <point x="616" y="298" type="line"/>
      <point x="600" y="298" type="line"/>
      <point x="506" y="598" type="line"/>
      <point x="356" y="1032" type="line"/>
      <point x="38" y="1032" type="line"/>
      <point x="454" y="6" type="line"/>
      <point x="390" y="-170" type="line"/>
      <point x="142" y="-170" type="line"/>
      <point x="142" y="-400" type="line"/>
      <point x="346" y="-400" type="line" smooth="yes"/>
      <point x="522" y="-400"/>
      <point x="616" y="-316"/>
      <point x="676" y="-166" type="curve" smooth="yes"/>
      <point x="1162" y="1032" type="line"/>
      <point x="860" y="1032" type="line"/>
    </contour>
    <contour>
      <point x="964" y="0" type="move" name="bottom"/>
    </contour>
    <contour>
      <point x="606" y="1032" type="move" name="top"/>
    </contour>
  </outline>
</glyph>
<glyph name="z" format="1">
  <unicode hex="007A"/>
  <advance width="1200" height="1560"/>
  <outline>
    <contour>
      <point x="1068" y="0" type="line" name="hr00"/>
      <point x="1068" y="230" type="line"/>
      <point x="474" y="230" type="line"/>
      <point x="1048" y="786" type="line"/>
      <point x="1048" y="1032" type="line"/>
      <point x="152" y="1032" type="line"/>
      <point x="152" y="802" type="line"/>
      <point x="706" y="802" type="line"/>
      <point x="132" y="246" type="line"/>
      <point x="132" y="0" type="line"/>
    </contour>
    <contour>
      <point x="600" y="0" type="move" name="bottom"/>
    </contour>
    <contour>
      <point x="600" y="1032" type="move" name="top"/>
    </contour>
  </outline>
</glyph>
<glyph name="braceleft" format="1">
  <unicode hex="007B"/>
  <advance width="1200" height="1560"/>
  <outline>
    <contour>
      <point x="1016" y="-276" type="line"/>
      <point x="1016" y="-78" type="line"/>
      <point x="646" y="-78" type="line"/>
      <point x="646" y="18" type="line" smooth="yes"/>
      <point x="646" y="118"/>
      <point x="686" y="162"/>
      <point x="726" y="214" type="curve" smooth="yes"/>
      <point x="772" y="270"/>
      <point x="820" y="332"/>
      <point x="820" y="416" type="curve" smooth="yes" name="hr01"/>
      <point x="820" y="526"/>
      <point x="744" y="596"/>
      <point x="584" y="614" type="curve"/>
      <point x="584" y="630" type="line"/>
      <point x="744" y="648"/>
      <point x="820" y="718"/>
      <point x="820" y="828" type="curve" smooth="yes"/>
      <point x="820" y="912"/>
      <point x="772" y="974"/>
      <point x="726" y="1030" type="curve" smooth="yes"/>
      <point x="686" y="1082"/>
      <point x="646" y="1126"/>
      <point x="646" y="1226" type="curve" smooth="yes" name="hr02"/>
      <point x="646" y="1322" type="line"/>
      <point x="1016" y="1322" type="line"/>
      <point x="1016" y="1520" type="line"/>
      <point x="660" y="1520" type="line" smooth="yes"/>
      <point x="478" y="1520"/>
      <point x="408" y="1430"/>
      <point x="408" y="1304" type="curve" smooth="yes"/>
      <point x="408" y="1214" type="line" smooth="yes"/>
      <point x="408" y="1080"/>
      <point x="472" y="1016"/>
      <point x="520" y="960" type="curve" smooth="yes"/>
      <point x="564" y="906"/>
      <point x="580" y="872"/>
      <point x="580" y="830" type="curve" smooth="yes" name="hr03"/>
      <point x="580" y="762"/>
      <point x="506" y="722"/>
      <point x="364" y="722" type="curve" smooth="yes"/>
      <point x="184" y="722" type="line"/>
      <point x="184" y="522" type="line"/>
      <point x="364" y="522" type="line" smooth="yes"/>
      <point x="506" y="522"/>
      <point x="580" y="482"/>
      <point x="580" y="414" type="curve" smooth="yes"/>
      <point x="580" y="372"/>
      <point x="564" y="338"/>
      <point x="520" y="284" type="curve" smooth="yes"/>
      <point x="472" y="228"/>
      <point x="408" y="164"/>
      <point x="408" y="30" type="curve" smooth="yes" name="hr04"/>
      <point x="408" y="-60" type="line" smooth="yes"/>
      <point x="408" y="-186"/>
      <point x="478" y="-276"/>
      <point x="660" y="-276" type="curve" smooth="yes"/>
    </contour>
  </outline>
</glyph>
<glyph name="bar" format="1">
  <unicode hex="007C"/>
  <advance width="1200" height="1560"/>
  <outline>
    <contour>
      <point x="726" y="-276" type="line" name="hr00"/>
      <point x="726" y="1520" type="line"/>
      <point x="474" y="1520" type="line"/>
      <point x="474" y="-276" type="line"/>
    </contour>
  </outline>
</glyph>
<glyph name="braceright" format="1">
  <unicode hex="007D"/>
  <advance width="1200" height="1560"/>
  <outline>
    <contour>
      <point x="184" y="1520" type="line"/>
      <point x="184" y="1322" type="line"/>
      <point x="554" y="1322" type="line"/>
      <point x="554" y="1226" type="line" smooth="yes"/>
      <point x="554" y="1126"/>
      <point x="514" y="1082"/>
      <point x="474" y="1030" type="curve" smooth="yes"/>
      <point x="428" y="974"/>
      <point x="380" y="912"/>
      <point x="380" y="828" type="curve" smooth="yes" name="hr01"/>
      <point x="380" y="718"/>
      <point x="456" y="648"/>
      <point x="616" y="630" type="curve"/>
      <point x="616" y="614" type="line"/>
      <point x="456" y="596"/>
      <point x="380" y="526"/>
      <point x="380" y="416" type="curve" smooth="yes"/>
      <point x="380" y="332"/>
      <point x="428" y="270"/>
      <point x="474" y="214" type="curve" smooth="yes"/>
      <point x="514" y="162"/>
      <point x="554" y="118"/>
      <point x="554" y="18" type="curve" smooth="yes" name="hr02"/>
      <point x="554" y="-78" type="line"/>
      <point x="184" y="-78" type="line"/>
      <point x="184" y="-276" type="line"/>
      <point x="540" y="-276" type="line" smooth="yes"/>
      <point x="722" y="-276"/>
      <point x="792" y="-186"/>
      <point x="792" y="-60" type="curve" smooth="yes"/>
      <point x="792" y="30" type="line" smooth="yes"/>
      <point x="792" y="164"/>
      <point x="728" y="228"/>
      <point x="680" y="284" type="curve" smooth="yes"/>
      <point x="636" y="338"/>
      <point x="620" y="372"/>
      <point x="620" y="414" type="curve" smooth="yes" name="hr03"/>
      <point x="620" y="482"/>
      <point x="694" y="522"/>
      <point x="836" y="522" type="curve" smooth="yes"/>
      <point x="1016" y="522" type="line"/>
      <point x="1016" y="722" type="line"/>
      <point x="836" y="722" type="line" smooth="yes"/>
      <point x="694" y="722"/>
      <point x="620" y="762"/>
      <point x="620" y="830" type="curve" smooth="yes"/>
      <point x="620" y="872"/>
      <point x="636" y="906"/>
      <point x="680" y="960" type="curve" smooth="yes"/>
      <point x="728" y="1016"/>
      <point x="792" y="1080"/>
      <point x="792" y="1214" type="curve" smooth="yes" name="hr04"/>
      <point x="792" y="1304" type="line" smooth="yes"/>
      <point x="792" y="1430"/>
      <point x="722" y="1520"/>
      <point x="540" y="1520" type="curve" smooth="yes"/>
    </contour>
  </outline>
</glyph>
<glyph name="yen" format="1">
  <unicode hex="00A5"/>
  <advance width="1200" height="1560"/>
  <outline>
    <contour>
      <point x="112" y="0" type="line" name="hr00"/>
      <point x="1088" y="0" type="line"/>
      <point x="1088" y="226" type="line"/>
      <point x="742" y="226" type="line"/>
      <point x="742" y="442" type="line"/>
      <point x="1088" y="442" type="line"/>
      <point x="1088" y="668" type="line"/>
      <point x="882" y="668" type="line"/>
      <point x="1200" y="1396" type="line"/>
      <point x="898" y="1396" type="line"/>
      <point x="614" y="668" type="line"/>
      <point x="594" y="668" type="line"/>
      <point x="312" y="1396" type="line"/>
      <point x="0" y="1396" type="line"/>
      <point x="320" y="668" type="line"/>
      <point x="112" y="668" type="line"/>
      <point x="112" y="442" type="line"/>
      <point x="458" y="442" type="line"/>
      <point x="458" y="226" type="line"/>
      <point x="112" y="226" type="line"/>
    </contour>
  </outline>
</glyph>
<glyph name="ordfeminine" format="1">
  <unicode hex="00AA"/>
  <advance width="1200" height="1560"/>
  <outline>
    <contour>
      <point x="978" y="680" type="line"/>
      <point x="978" y="830" type="line"/>
      <point x="898" y="830" type="line"/>
      <point x="898" y="1146" type="line" smooth="yes"/>
      <point x="898" y="1328"/>
      <point x="780" y="1420"/>
      <point x="584" y="1420" type="curve" smooth="yes"/>
      <point x="422" y="1420"/>
      <point x="318" y="1360"/>
      <point x="270" y="1278" type="curve"/>
      <point x="382" y="1178" type="line"/>
      <point x="422" y="1230"/>
      <point x="472" y="1268"/>
      <point x="560" y="1268" type="curve" smooth="yes"/>
      <point x="654" y="1268"/>
      <point x="690" y="1224"/>
      <point x="690" y="1138" type="curve" smooth="yes"/>
      <point x="690" y="1102" type="line"/>
      <point x="574" y="1102" type="line" smooth="yes"/>
      <point x="364" y="1102"/>
      <point x="250" y="1030"/>
      <point x="250" y="880" type="curve" smooth="yes"/>
      <point x="250" y="744"/>
      <point x="342" y="664"/>
      <point x="482" y="664" type="curve" smooth="yes" name="hr01"/>
      <point x="592" y="664"/>
      <point x="676" y="714"/>
      <point x="702" y="808" type="curve"/>
      <point x="710" y="808" type="line"/>
      <point x="718" y="726"/>
      <point x="774" y="680"/>
      <point x="858" y="680" type="curve" smooth="yes" name="hr02"/>
    </contour>
    <contour>
      <point x="690" y="990" type="line"/>
      <point x="690" y="904" type="line" smooth="yes"/>
      <point x="690" y="836"/>
      <point x="634" y="800"/>
      <point x="560" y="800" type="curve" smooth="yes" name="hr03"/>
      <point x="494" y="800"/>
      <point x="452" y="826"/>
      <point x="452" y="876" type="curve" smooth="yes"/>
      <point x="452" y="904" type="line" smooth="yes"/>
      <point x="452" y="960"/>
      <point x="498" y="990"/>
      <point x="580" y="990" type="curve" smooth="yes"/>
    </contour>
  </outline>
</glyph>
<glyph name="acute" format="1">
  <unicode hex="00B4"/>
  <advance width="1200" height="1560"/>
  <outline>
    <contour>
      <point x="900" y="1492" type="line" name="hr00"/>
      <point x="654" y="1614" type="line"/>
      <point x="456" y="1226" type="line"/>
      <point x="632" y="1140" type="line"/>
    </contour>
    <contour>
      <point x="600" y="1032" type="move" name="_top"/>
    </contour>
  </outline>
</glyph>
<glyph name="cedilla" format="1">
  <unicode hex="00B8"/>
  <advance width="1200" height="1560"/>
  <outline>
    <contour>
      <point x="628" y="-424" type="curve" smooth="yes" name="hr00"/>
      <point x="764" y="-424"/>
      <point x="892" y="-378"/>
      <point x="892" y="-242" type="curve" smooth="yes"/>
      <point x="892" y="-144"/>
      <point x="826" y="-104"/>
      <point x="746" y="-104" type="curve" smooth="yes"/>
      <point x="714" y="-104"/>
      <point x="682" y="-110"/>
      <point x="650" y="-118" type="curve"/>
      <point x="642" y="-110" type="line"/>
      <point x="678" y="60" type="line"/>
      <point x="544" y="60" type="line"/>
      <point x="500" y="-148" type="line"/>
      <point x="542" y="-152" type="line" smooth="yes"/>
      <point x="666" y="-164"/>
      <point x="692" y="-202"/>
      <point x="692" y="-232" type="curve" smooth="yes"/>
      <point x="692" y="-266"/>
      <point x="654" y="-282"/>
      <point x="604" y="-282" type="curve" smooth="yes"/>
      <point x="542" y="-282"/>
      <point x="498" y="-256"/>
      <point x="472" y="-224" type="curve"/>
      <point x="380" y="-336" type="line"/>
      <point x="414" y="-376"/>
      <point x="490" y="-424"/>
    </contour>
    <contour>
      <point x="600" y="0" type="move" name="_bottom"/>
    </contour>
  </outline>
</glyph>
<glyph name="AE" format="1">
  <unicode hex="00C6"/>
  <advance width="1200" height="1560"/>
  <outline>
    <contour>
      <point x="558" y="0" type="line" name="hr00"/>
      <point x="1144" y="0" type="line"/>
      <point x="1144" y="222" type="line"/>
      <point x="834" y="222" type="line"/>
      <point x="834" y="596" type="line"/>
      <point x="1124" y="596" type="line"/>
      <point x="1124" y="818" type="line"/>
      <point x="834" y="818" type="line"/>
      <point x="834" y="1174" type="line"/>
      <point x="1144" y="1174" type="line"/>
      <point x="1144" y="1396" type="line"/>
      <point x="310" y="1396" type="line"/>
      <point x="-8" y="0" type="line"/>
      <point x="284" y="0" type="line"/>
      <point x="350" y="336" type="line"/>
      <point x="558" y="336" type="line"/>
    </contour>
    <contour>
      <point x="558" y="1188" type="line"/>
      <point x="558" y="558" type="line"/>
      <point x="394" y="558" type="line"/>
      <point x="514" y="1188" type="line"/>
    </contour>
    <contour>
      <point x="728" y="1396" type="move" name="top"/>
    </contour>
  </outline>
</glyph>
<glyph name="eogonek" format="1">
  <unicode hex="0119"/>
  <advance width="1200" height="1560"/>
  <outline>
    <contour>
      <point x="726" y="-424" type="curve" smooth="yes" name="hr00"/>
      <point x="852" y="-424"/>
      <point x="936" y="-386"/>
      <point x="970" y="-322" type="curve"/>
      <point x="864" y="-220" type="line"/>
      <point x="836" y="-252"/>
      <point x="802" y="-276"/>
      <point x="754" y="-276" type="curve" smooth="yes"/>
      <point x="714" y="-276"/>
      <point x="678" y="-260"/>
      <point x="678" y="-210" type="curve" smooth="yes"/>
      <point x="678" y="-154"/>
      <point x="722" y="-124"/>
      <point x="864" y="-14" type="curve" smooth="yes"/>
      <point x="976" y="72"/>
      <point x="1022" y="106"/>
      <point x="1070" y="158" type="curve"/>
      <point x="910" y="332" type="line"/>
      <point x="846" y="256"/>
      <point x="760" y="204"/>
      <point x="638" y="204" type="curve" smooth="yes"/>
      <point x="480" y="204"/>
      <point x="394" y="294"/>
      <point x="394" y="426" type="curve" smooth="yes"/>
      <point x="394" y="444" type="line"/>
      <point x="1100" y="444" type="line"/>
      <point x="1100" y="532" type="line" smooth="yes"/>
      <point x="1100" y="854"/>
      <point x="910" y="1056"/>
      <point x="602" y="1056" type="curve" smooth="yes"/>
      <point x="292" y="1056"/>
      <point x="100" y="850"/>
      <point x="100" y="514" type="curve" smooth="yes"/>
      <point x="100" y="168"/>
      <point x="302" y="-24"/>
      <point x="610" y="-24" type="curve" smooth="yes"/>
      <point x="654" y="-24"/>
      <point x="690" y="-20"/>
      <point x="710" y="-14" type="curve"/>
      <point x="714" y="-24" type="line"/>
      <point x="568" y="-86"/>
      <point x="478" y="-148"/>
      <point x="478" y="-256" type="curve" smooth="yes"/>
      <point x="478" y="-382"/>
      <point x="596" y="-424"/>
    </contour>
    <contour>
      <point x="394" y="610" type="line"/>
      <point x="394" y="626" type="line" smooth="yes"/>
      <point x="394" y="758"/>
      <point x="476" y="844"/>
      <point x="604" y="844" type="curve" smooth="yes"/>
      <point x="732" y="844"/>
      <point x="810" y="760"/>
      <point x="810" y="626" type="curve" smooth="yes"/>
      <point x="810" y="610" type="line"/>
    </contour>
  </outline>
</glyph>
<glyph name="IJ" format="1">
  <unicode hex="0132"/>
  <advance width="1200" height="1560"/>
  <outline>
    <contour>
      <point x="750" y="1396" type="line" name="hr00"/>
      <point x="750" y="420" type="line" smooth="yes"/>
      <point x="750" y="284"/>
      <point x="690" y="220"/>
      <point x="588" y="220" type="curve" smooth="yes"/>
      <point x="468" y="220"/>
      <point x="418" y="308"/>
      <point x="396" y="426" type="curve"/>
      <point x="104" y="362" type="line"/>
      <point x="146" y="138"/>
      <point x="296" y="-24"/>
      <point x="586" y="-24" type="curve" smooth="yes"/>
      <point x="874" y="-24"/>
      <point x="1050" y="138"/>
      <point x="1050" y="390" type="curve" smooth="yes"/>
      <point x="1050" y="1396" type="line"/>
    </contour>
    <contour>
      <point x="126" y="618" type="line"/>
      <point x="426" y="618" type="line"/>
      <point x="426" y="1396" type="line"/>
      <point x="126" y="1396" type="line"/>
    </contour>
  </outline>
</glyph>
<glyph name="ij" format="1">
  <unicode hex="0133"/>
  <advance width="1200" height="1560"/>
  <outline>
    <contour>
      <point x="148" y="0" type="line"/>
      <point x="444" y="0" type="line"/>
      <point x="444" y="1032" type="line"/>
      <point x="148" y="1032" type="line"/>
    </contour>
    <contour>
      <point x="444" y="-400" type="line"/>
      <point x="736" y="-400" type="line" smooth="yes"/>
      <point x="950" y="-400"/>
      <point x="1052" y="-276"/>
      <point x="1052" y="-102" type="curve" smooth="yes"/>
      <point x="1052" y="1032" type="line"/>
      <point x="756" y="1032" type="line"/>
      <point x="756" y="-170" type="line"/>
      <point x="444" y="-170" type="line"/>
    </contour>
    <contour>
      <point x="296" y="1164" type="curve" smooth="yes"/>
      <point x="430" y="1164"/>
      <point x="476" y="1226"/>
      <point x="476" y="1304" type="curve" smooth="yes" name="hr01"/>
      <point x="476" y="1362" type="line" smooth="yes"/>
      <point x="476" y="1442"/>
      <point x="430" y="1502"/>
      <point x="296" y="1502" type="curve" smooth="yes"/>
      <point x="164" y="1502"/>
      <point x="118" y="1442"/>
      <point x="118" y="1362" type="curve" smooth="yes"/>
      <point x="118" y="1304" type="line" smooth="yes"/>
      <point x="118" y="1226"/>
      <point x="164" y="1164"/>
    </contour>
    <contour>
      <point x="904" y="1164" type="curve" smooth="yes"/>
      <point x="1036" y="1164"/>
      <point x="1082" y="1226"/>
      <point x="1082" y="1304" type="curve" smooth="yes"/>
      <point x="1082" y="1362" type="line" smooth="yes"/>
      <point x="1082" y="1442"/>
      <point x="1036" y="1502"/>
      <point x="904" y="1502" type="curve" smooth="yes"/>
      <point x="770" y="1502"/>
      <point x="724" y="1442"/>
      <point x="724" y="1362" type="curve" smooth="yes"/>
      <point x="724" y="1304" type="line" smooth="yes"/>
      <point x="724" y="1226"/>
      <point x="770" y="1164"/>
    </contour>
  </outline>
</glyph>
<glyph name="Lslash" format="1">
  <unicode hex="0141"/>
  <advance width="1200" height="1560"/>
  <outline>
    <contour>
      <point x="1086" y="246" type="line" name="hr00"/>
      <point x="510" y="246" type="line"/>
      <point x="510" y="578" type="line"/>
      <point x="878" y="700" type="line"/>
      <point x="878" y="926" type="line"/>
      <point x="510" y="804" type="line"/>
      <point x="510" y="1396" type="line"/>
      <point x="208" y="1396" type="line"/>
      <point x="208" y="714" type="line"/>
      <point x="66" y="668" type="line"/>
      <point x="66" y="442" type="line"/>
      <point x="208" y="488" type="line"/>
      <point x="208" y="0" type="line"/>
      <point x="1086" y="0" type="line"/>
    </contour>
  </outline>
</glyph>
<glyph name="lslash" format="1">
  <unicode hex="0142"/>
  <advance width="1200" height="1560"/>
  <outline>
    <contour>
      <point x="136" y="0" type="line" name="hr00"/>
      <point x="1064" y="0" type="line"/>
      <point x="1064" y="230" type="line"/>
      <point x="748" y="230" type="line"/>
      <point x="748" y="602" type="line"/>
      <point x="1006" y="686" type="line"/>
      <point x="1006" y="904" type="line"/>
      <point x="748" y="820" type="line"/>
      <point x="748" y="1480" type="line"/>
      <point x="136" y="1480" type="line"/>
      <point x="136" y="1250" type="line"/>
      <point x="452" y="1250" type="line"/>
      <point x="452" y="730" type="line"/>
      <point x="194" y="646" type="line"/>
      <point x="194" y="428" type="line"/>
      <point x="452" y="512" type="line"/>
      <point x="452" y="230" type="line"/>
      <point x="136" y="230" type="line"/>
    </contour>
  </outline>
</glyph>
<glyph name="uogonek" format="1">
  <unicode hex="0173"/>
  <advance width="1200" height="1560"/>
  <outline>
    <contour>
      <point x="1070" y="1032" type="line"/>
      <point x="774" y="1032" type="line"/>
      <point x="774" y="354" type="line" smooth="yes"/>
      <point x="774" y="254"/>
      <point x="684" y="204"/>
      <point x="592" y="204" type="curve" smooth="yes"/>
      <point x="476" y="204"/>
      <point x="418" y="274"/>
      <point x="418" y="404" type="curve" smooth="yes"/>
      <point x="418" y="1032" type="line"/>
      <point x="122" y="1032" type="line"/>
      <point x="122" y="364" type="line" smooth="yes"/>
      <point x="122" y="114"/>
      <point x="260" y="-24"/>
      <point x="458" y="-24" type="curve" smooth="yes"/>
      <point x="624" y="-24"/>
      <point x="716" y="72"/>
      <point x="762" y="188" type="curve"/>
      <point x="774" y="188" type="line"/>
      <point x="774" y="0" type="line" name="hr01"/>
      <point x="878" y="0" type="line"/>
      <point x="880" y="-8" type="line"/>
      <point x="732" y="-76"/>
      <point x="642" y="-142"/>
      <point x="642" y="-254" type="curve" smooth="yes" name="hr02"/>
      <point x="642" y="-382"/>
      <point x="758" y="-424"/>
      <point x="890" y="-424" type="curve" smooth="yes"/>
      <point x="1016" y="-424"/>
      <point x="1100" y="-386"/>
      <point x="1134" y="-322" type="curve"/>
      <point x="1028" y="-220" type="line"/>
      <point x="1000" y="-252"/>
      <point x="966" y="-276"/>
      <point x="918" y="-276" type="curve" smooth="yes"/>
      <point x="878" y="-276"/>
      <point x="842" y="-260"/>
      <point x="842" y="-210" type="curve" smooth="yes"/>
      <point x="842" y="-162"/>
      <point x="874" y="-120"/>
      <point x="1070" y="0" type="curve" name="hr03"/>
    </contour>
  </outline>
</glyph>
<glyph name="Ohorn" format="1">
  <unicode hex="01A0"/>
  <advance width="1200" height="1560"/>
  <outline>
    <contour>
      <point x="1186" y="1626" type="line"/>
      <point x="938" y="1626" type="line"/>
      <point x="938" y="1396" type="line"/>
      <point x="778" y="1396" type="line"/>
      <point x="726" y="1412"/>
      <point x="666" y="1420"/>
      <point x="600" y="1420" type="curve" smooth="yes" name="hr01"/>
      <point x="226" y="1420"/>
      <point x="54" y="1154"/>
      <point x="54" y="698" type="curve" smooth="yes"/>
      <point x="54" y="242"/>
      <point x="226" y="-24"/>
      <point x="600" y="-24" type="curve" smooth="yes"/>
      <point x="974" y="-24"/>
      <point x="1146" y="242"/>
      <point x="1146" y="698" type="curve" smooth="yes"/>
      <point x="1146" y="930"/>
      <point x="1114" y="1110"/>
      <point x="1012" y="1220" type="curve" name="hr02"/>
      <point x="1150" y="1228"/>
      <point x="1186" y="1296"/>
      <point x="1186" y="1420" type="curve" smooth="yes" name="hr03"/>
    </contour>
    <contour>
      <point x="600" y="218" type="curve" smooth="yes"/>
      <point x="430" y="218"/>
      <point x="374" y="352"/>
      <point x="374" y="576" type="curve" smooth="yes"/>
      <point x="374" y="820" type="line" smooth="yes"/>
      <point x="374" y="1044"/>
      <point x="430" y="1178"/>
      <point x="600" y="1178" type="curve" smooth="yes"/>
      <point x="770" y="1178"/>
      <point x="826" y="1044"/>
      <point x="826" y="820" type="curve" smooth="yes" name="hr04"/>
      <point x="826" y="578" type="line" smooth="yes"/>
      <point x="826" y="352"/>
      <point x="770" y="218"/>
    </contour>
    <contour>
      <point x="600" y="0" type="move" name="bottom"/>
    </contour>
    <contour>
      <point x="600" y="1396" type="move" name="top"/>
    </contour>
  </outline>
</glyph>
<glyph name="Uhorn" format="1">
  <unicode hex="01AF"/>
  <advance width="1200" height="1560"/>
  <outline>
    <contour>
      <point x="110" y="1396" type="line"/>
      <point x="110" y="552" type="line" smooth="yes"/>
      <point x="110" y="170"/>
      <point x="194" y="-24"/>
      <point x="600" y="-24" type="curve" smooth="yes"/>
      <point x="1006" y="-24"/>
      <point x="1090" y="170"/>
      <point x="1090" y="552" type="curve" smooth="yes"/>
      <point x="1090" y="1228" type="line"/>
      <point x="1176" y="1252"/>
      <point x="1200" y="1316"/>
      <point x="1200" y="1420" type="curve" smooth="yes" name="hr01"/>
      <point x="1200" y="1626" type="line"/>
      <point x="952" y="1626" type="line"/>
      <point x="952" y="1396" type="line"/>
      <point x="790" y="1396" type="line" name="hr02"/>
      <point x="790" y="512" type="line" smooth="yes"/>
      <point x="790" y="334"/>
      <point x="776" y="218"/>
      <point x="600" y="218" type="curve" smooth="yes"/>
      <point x="424" y="218"/>
      <point x="410" y="334"/>
      <point x="410" y="512" type="curve" smooth="yes"/>
      <point x="410" y="1396" type="line"/>
    </contour>
    <contour>
      <point x="600" y="0" type="move" name="bottom"/>
    </contour>
    <contour>
      <point x="600" y="1396" type="move" name="top"/>
    </contour>
  </outline>
</glyph>
<glyph name="uhorn" format="1">
  <unicode hex="01B0"/>
  <advance width="1200" height="1560"/>
  <outline>
    <contour>
      <point x="1196" y="1262" type="line"/>
      <point x="948" y="1262" type="line"/>
      <point x="948" y="1032" type="line"/>
      <point x="774" y="1032" type="line" name="hr01"/>
      <point x="774" y="354" type="line" smooth="yes"/>
      <point x="774" y="254"/>
      <point x="684" y="204"/>
      <point x="592" y="204" type="curve" smooth="yes"/>
      <point x="476" y="204"/>
      <point x="418" y="274"/>
      <point x="418" y="404" type="curve" smooth="yes"/>
      <point x="418" y="1032" type="line"/>
      <point x="122" y="1032" type="line"/>
      <point x="122" y="364" type="line" smooth="yes"/>
      <point x="122" y="114"/>
      <point x="260" y="-24"/>
      <point x="458" y="-24" type="curve" smooth="yes"/>
      <point x="624" y="-24"/>
      <point x="716" y="72"/>
      <point x="762" y="188" type="curve"/>
      <point x="774" y="188" type="line"/>
      <point x="774" y="0" type="line" name="hr02"/>
      <point x="1070" y="0" type="line"/>
      <point x="1070" y="860" type="line"/>
      <point x="1168" y="880"/>
      <point x="1196" y="946"/>
      <point x="1196" y="1056" type="curve" smooth="yes" name="hr03"/>
    </contour>
    <contour>
      <point x="596" y="0" type="move" name="bottom"/>
    </contour>
    <contour>
      <point x="596" y="1032" type="move" name="top"/>
    </contour>
  </outline>
</glyph>
<glyph name="dotlessj" format="1">
  <unicode hex="0237"/>
  <advance width="1200" height="1560"/>
  <outline>
    <contour>
      <point x="184" y="-400" type="line" name="hr00"/>
      <point x="562" y="-400" type="line" smooth="yes"/>
      <point x="774" y="-400"/>
      <point x="876" y="-276"/>
      <point x="876" y="-102" type="curve" smooth="yes"/>
      <point x="876" y="1032" type="line"/>
      <point x="180" y="1032" type="line"/>
      <point x="180" y="802" type="line"/>
      <point x="580" y="802" type="line"/>
      <point x="580" y="-170" type="line"/>
      <point x="184" y="-170" type="line"/>
    </contour>
    <contour>
      <point x="728" y="1032" type="move" name="top"/>
    </contour>
  </outline>
</glyph>
<glyph name="commaturnedtop" format="1">
  <unicode hex="02BB"/>
  <advance width="1200" height="1560"/>
  <outline>
    <contour>
      <point x="442" y="1158" type="line" name="hr00"/>
      <point x="756" y="1158" type="line"/>
      <point x="792" y="1588" type="line"/>
      <point x="616" y="1588" type="line"/>
    </contour>
    <contour>
      <point x="600" y="1032" type="move" name="_top"/>
    </contour>
  </outline>
</glyph>
<glyph name="caron" format="1">
  <unicode hex="02C7"/>
  <advance width="1200" height="1560"/>
  <outline>
    <contour>
      <point x="724" y="1156" type="line" name="hr00"/>
      <point x="988" y="1474" type="line"/>
      <point x="846" y="1590" type="line"/>
      <point x="604" y="1360" type="line"/>
      <point x="362" y="1590" type="line"/>
      <point x="212" y="1474" type="line"/>
      <point x="476" y="1156" type="line"/>
    </contour>
    <contour>
      <point x="600" y="1032" type="move" name="_top"/>
    </contour>
  </outline>
</glyph>
<glyph name="hungarumlaut" format="1">
  <unicode hex="02DD"/>
  <advance width="1200" height="1560"/>
  <outline>
    <contour>
      <point x="688" y="1492" type="line" name="hr00"/>
      <point x="456" y="1606" type="line"/>
      <point x="258" y="1218" type="line"/>
      <point x="420" y="1140" type="line"/>
    </contour>
    <contour>
      <point x="1098" y="1492" type="line"/>
      <point x="866" y="1606" type="line"/>
      <point x="668" y="1218" type="line"/>
      <point x="830" y="1140" type="line"/>
    </contour>
    <contour>
      <point x="600" y="1032" type="move" name="_top"/>
    </contour>
  </outline>
</glyph>
<glyph name="hookcomb" format="1">
  <unicode hex="0309"/>
  <advance width="0" height="1560"/>
  <outline>
    <contour>
      <point x="-240" y="1374" type="line" name="hr00"/>
      <point x="4" y="1374" type="line"/>
      <point x="-78" y="1190" type="line"/>
      <point x="72" y="1120" type="line"/>
      <point x="128" y="1188" type="line" smooth="yes"/>
      <point x="194" y="1268"/>
      <point x="242" y="1362"/>
      <point x="242" y="1440" type="curve" smooth="yes"/>
      <point x="242" y="1518"/>
      <point x="196" y="1586"/>
      <point x="46" y="1586" type="curve" smooth="yes"/>
      <point x="-240" y="1586" type="line"/>
    </contour>
    <contour>
      <point x="0" y="1032" type="move" name="_top"/>
    </contour>
  </outline>
</glyph>
<glyph name="commabelowcomb" format="1">
  <unicode hex="0326"/>
  <advance width="0" height="1560"/>
  <outline>
    <contour>
      <point x="-192" y="-538" type="line" name="hr00"/>
      <point x="-16" y="-538" type="line"/>
      <point x="158" y="-108" type="line"/>
      <point x="-156" y="-108" type="line"/>
    </contour>
    <contour>
      <point x="0" y="0" type="move" name="_bottom"/>
    </contour>
  </outline>
</glyph>
<glyph name="uni040A" format="1">
  <unicode hex="040A"/>
  <advance width="1200" height="1560"/>
  <outline>
    <contour>
      <point x="490" y="0" type="line" name="hr00"/>
      <point x="806" y="0" type="line" smooth="yes"/>
      <point x="1038" y="0"/>
      <point x="1190" y="166"/>
      <point x="1190" y="446" type="curve" smooth="yes"/>
      <point x="1190" y="726"/>
      <point x="1038" y="892"/>
      <point x="806" y="892" type="curve" smooth="yes"/>
      <point x="746" y="892" type="line"/>
      <point x="746" y="1396" type="line"/>
      <point x="490" y="1396" type="line"/>
      <point x="490" y="820" type="line"/>
      <point x="312" y="820" type="line"/>
      <point x="312" y="1396" type="line"/>
      <point x="56" y="1396" type="line"/>
      <point x="56" y="0" type="line"/>
      <point x="312" y="0" type="line"/>
      <point x="312" y="594" type="line"/>
      <point x="490" y="594" type="line"/>
    </contour>
    <contour>
      <point x="746" y="226" type="line"/>
      <point x="746" y="666" type="line"/>
      <point x="774" y="666" type="line" smooth="yes"/>
      <point x="868" y="666"/>
      <point x="926" y="618"/>
      <point x="926" y="518" type="curve" smooth="yes"/>
      <point x="926" y="374" type="line" smooth="yes"/>
      <point x="926" y="274"/>
      <point x="868" y="226"/>
      <point x="774" y="226" type="curve" smooth="yes"/>
    </contour>
  </outline>
</glyph>
<glyph name="uni0418" format="1">
  <unicode hex="0418"/>
  <advance width="1200" height="1560"/>
  <outline>
    <contour>
      <point x="110" y="0" type="line" name="hr00"/>
      <point x="392" y="0" type="line"/>
      <point x="812" y="892" type="line"/>
      <point x="832" y="892" type="line"/>
      <point x="808" y="518" type="line"/>
      <point x="808" y="0" type="line"/>
      <point x="1090" y="0" type="line"/>
      <point x="1090" y="1396" type="line"/>
      <point x="808" y="1396" type="line"/>
      <point x="388" y="504" type="line"/>
      <point x="368" y="504" type="line"/>
      <point x="392" y="878" type="line"/>
      <point x="392" y="1396" type="line"/>
      <point x="110" y="1396" type="line"/>
    </contour>
    <contour>
      <point x="600" y="1396" type="move" name="top"/>
    </contour>
  </outline>
</glyph>
<glyph name="uni041F" format="1">
  <unicode hex="041F"/>
  <advance width="1200" height="1560"/>
  <outline>
    <contour>
      <point x="122" y="0" type="line" name="hr00"/>
      <point x="424" y="0" type="line"/>
      <point x="424" y="1150" type="line"/>
      <point x="776" y="1150" type="line"/>
      <point x="776" y="0" type="line"/>
      <point x="1078" y="0" type="line"/>
      <point x="1078" y="1396" type="line"/>
      <point x="122" y="1396" type="line"/>
    </contour>
  </outline>
</glyph>
<glyph name="uni042C" format="1">
  <unicode hex="042C"/>
  <advance width="1200" height="1560"/>
  <outline>
    <contour>
      <point x="136" y="0" type="line" name="hr00"/>
      <point x="700" y="0" type="line" smooth="yes"/>
      <point x="960" y="0"/>
      <point x="1124" y="174"/>
      <point x="1124" y="446" type="curve" smooth="yes"/>
      <point x="1124" y="722"/>
      <point x="960" y="892"/>
      <point x="700" y="892" type="curve" smooth="yes"/>
      <point x="438" y="892" type="line"/>
      <point x="438" y="1396" type="line"/>
      <point x="136" y="1396" type="line"/>
    </contour>
    <contour>
      <point x="438" y="236" type="line"/>
      <point x="438" y="656" type="line"/>
      <point x="644" y="656" type="line" smooth="yes"/>
      <point x="754" y="656"/>
      <point x="810" y="608"/>
      <point x="810" y="508" type="curve" smooth="yes"/>
      <point x="810" y="384" type="line" smooth="yes"/>
      <point x="810" y="284"/>
      <point x="754" y="236"/>
      <point x="644" y="236" type="curve" smooth="yes"/>
    </contour>
  </outline>
</glyph>
<glyph name="uni042D" format="1">
  <unicode hex="042D"/>
  <advance width="1200" height="1560"/>
  <outline>
    <contour>
      <point x="574" y="-24" type="curve" smooth="yes" name="hr00"/>
      <point x="956" y="-24"/>
      <point x="1132" y="240"/>
      <point x="1132" y="698" type="curve" smooth="yes"/>
      <point x="1132" y="1156"/>
      <point x="956" y="1420"/>
      <point x="574" y="1420" type="curve" smooth="yes"/>
      <point x="274" y="1420"/>
      <point x="124" y="1262"/>
      <point x="70" y="1038" type="curve"/>
      <point x="350" y="970" type="line"/>
      <point x="378" y="1082"/>
      <point x="428" y="1178"/>
      <point x="580" y="1178" type="curve" smooth="yes"/>
      <point x="746" y="1178"/>
      <point x="810" y="1046"/>
      <point x="812" y="830" type="curve"/>
      <point x="446" y="830" type="line"/>
      <point x="446" y="584" type="line"/>
      <point x="812" y="584" type="line"/>
      <point x="812" y="576" type="line" smooth="yes"/>
      <point x="812" y="354"/>
      <point x="750" y="218"/>
      <point x="580" y="218" type="curve" smooth="yes"/>
      <point x="428" y="218"/>
      <point x="374" y="314"/>
      <point x="350" y="426" type="curve"/>
      <point x="70" y="358" type="line"/>
      <point x="124" y="134"/>
      <point x="274" y="-24"/>
    </contour>
  </outline>
</glyph>
<glyph name="uni043A" format="1">
  <unicode hex="043A"/>
  <advance width="1200" height="1560"/>
  <outline>
    <contour>
      <point x="142" y="0" type="line" name="hr00"/>
      <point x="438" y="0" type="line"/>
      <point x="438" y="410" type="line"/>
      <point x="590" y="410" type="line"/>
      <point x="726" y="150" type="line" smooth="yes"/>
      <point x="782" y="42"/>
      <point x="858" y="0"/>
      <point x="970" y="0" type="curve" smooth="yes"/>
      <point x="1108" y="0" type="line"/>
      <point x="1108" y="230" type="line"/>
      <point x="998" y="230" type="line"/>
      <point x="920" y="384" type="line" smooth="yes"/>
      <point x="870" y="482"/>
      <point x="828" y="516"/>
      <point x="750" y="532" type="curve"/>
      <point x="750" y="544" type="line"/>
      <point x="816" y="556"/>
      <point x="866" y="592"/>
      <point x="912" y="676" type="curve" smooth="yes"/>
      <point x="1112" y="1032" type="line"/>
      <point x="798" y="1032" type="line"/>
      <point x="590" y="636" type="line"/>
      <point x="438" y="636" type="line"/>
      <point x="438" y="1032" type="line"/>
      <point x="142" y="1032" type="line"/>
    </contour>
    <contour>
      <point x="600" y="1032" type="move" name="top"/>
    </contour>
  </outline>
</glyph>
<glyph name="uni043C" format="1">
  <unicode hex="043C"/>
  <advance width="1200" height="1560"/>
  <outline>
    <contour>
      <point x="100" y="0" type="line" name="hr00"/>
      <point x="340" y="0" type="line"/>
      <point x="340" y="494" type="line"/>
      <point x="330" y="676" type="line"/>
      <point x="346" y="676" type="line"/>
      <point x="600" y="142" type="line"/>
      <point x="854" y="676" type="line"/>
      <point x="870" y="676" type="line"/>
      <point x="860" y="494" type="line"/>
      <point x="860" y="0" type="line"/>
      <point x="1100" y="0" type="line"/>
      <point x="1100" y="1032" type="line"/>
      <point x="828" y="1032" type="line"/>
      <point x="622" y="598" type="line"/>
      <point x="606" y="598" type="line"/>
      <point x="400" y="1032" type="line"/>
      <point x="100" y="1032" type="line"/>
    </contour>
  </outline>
</glyph>
<glyph name="uni0447" format="1">
  <unicode hex="0447"/>
  <advance width="1200" height="1560"/>
  <outline>
    <contour>
      <point x="748" y="0" type="line" name="hr00"/>
      <point x="1044" y="0" type="line"/>
      <point x="1044" y="1032" type="line"/>
      <point x="748" y="1032" type="line"/>
      <point x="748" y="646" type="line" smooth="yes"/>
      <point x="748" y="574"/>
      <point x="690" y="532"/>
      <point x="570" y="532" type="curve" smooth="yes"/>
      <point x="454" y="532"/>
      <point x="408" y="576"/>
      <point x="408" y="680" type="curve" smooth="yes"/>
      <point x="408" y="1032" type="line"/>
      <point x="112" y="1032" type="line"/>
      <point x="112" y="666" type="line" smooth="yes"/>
      <point x="112" y="414"/>
      <point x="216" y="292"/>
      <point x="452" y="292" type="curve" smooth="yes"/>
      <point x="584" y="292"/>
      <point x="674" y="346"/>
      <point x="738" y="430" type="curve"/>
      <point x="748" y="430" type="line"/>
    </contour>
    <contour>
      <point x="578" y="1032" type="move" name="top"/>
    </contour>
  </outline>
</glyph>
<glyph name="uni044D" format="1">
  <unicode hex="044D"/>
  <advance width="1200" height="1560"/>
  <outline>
    <contour>
      <point x="464" y="418" type="line" name="hr00"/>
      <point x="788" y="418" type="line"/>
      <point x="788" y="398"/>
      <point x="786" y="380"/>
      <point x="782" y="364" type="curve" smooth="yes"/>
      <point x="760" y="258"/>
      <point x="682" y="196"/>
      <point x="558" y="196" type="curve" smooth="yes"/>
      <point x="436" y="196"/>
      <point x="372" y="256"/>
      <point x="332" y="342" type="curve"/>
      <point x="118" y="220" type="line"/>
      <point x="194" y="74"/>
      <point x="332" y="-24"/>
      <point x="558" y="-24" type="curve" smooth="yes"/>
      <point x="884" y="-24"/>
      <point x="1080" y="182"/>
      <point x="1080" y="516" type="curve" smooth="yes"/>
      <point x="1080" y="850"/>
      <point x="884" y="1056"/>
      <point x="554" y="1056" type="curve" smooth="yes"/>
      <point x="318" y="1056"/>
      <point x="190" y="954"/>
      <point x="118" y="804" type="curve"/>
      <point x="336" y="686" type="line"/>
      <point x="376" y="778"/>
      <point x="434" y="836"/>
      <point x="554" y="836" type="curve" smooth="yes"/>
      <point x="678" y="836"/>
      <point x="756" y="778"/>
      <point x="780" y="676" type="curve" smooth="yes"/>
      <point x="784" y="658"/>
      <point x="788" y="636"/>
      <point x="788" y="614" type="curve"/>
      <point x="464" y="614" type="line"/>
    </contour>
  </outline>
</glyph>
<glyph name="uni044E" format="1">
  <unicode hex="044E"/>
  <advance width="1200" height="1560"/>
  <outline>
    <contour>
      <point x="786" y="-24" type="curve" smooth="yes" name="hr00"/>
      <point x="1026" y="-24"/>
      <point x="1142" y="128"/>
      <point x="1142" y="516" type="curve" smooth="yes"/>
      <point x="1142" y="904"/>
      <point x="1034" y="1056"/>
      <point x="786" y="1056" type="curve" smooth="yes"/>
      <point x="572" y="1056"/>
      <point x="460" y="928"/>
      <point x="436" y="626" type="curve"/>
      <point x="308" y="626" type="line"/>
      <point x="308" y="1032" type="line"/>
      <point x="60" y="1032" type="line"/>
      <point x="60" y="0" type="line"/>
      <point x="308" y="0" type="line"/>
      <point x="308" y="420" type="line"/>
      <point x="436" y="420" type="line"/>
      <point x="454" y="110"/>
      <point x="560" y="-24"/>
    </contour>
    <contour>
      <point x="788" y="186" type="curve" smooth="yes"/>
      <point x="718" y="186"/>
      <point x="692" y="228"/>
      <point x="692" y="408" type="curve" smooth="yes"/>
      <point x="692" y="624" type="line" smooth="yes"/>
      <point x="692" y="804"/>
      <point x="718" y="846"/>
      <point x="788" y="846" type="curve" smooth="yes"/>
      <point x="858" y="846"/>
      <point x="884" y="804"/>
      <point x="884" y="624" type="curve" smooth="yes"/>
      <point x="884" y="408" type="line" smooth="yes"/>
      <point x="884" y="228"/>
      <point x="858" y="186"/>
    </contour>
  </outline>
</glyph>
<glyph name="uni0454" format="1">
  <unicode hex="0454"/>
  <advance width="1200" height="1560"/>
  <outline>
    <contour>
      <point x="642" y="-24" type="curve" smooth="yes" name="hr00"/>
      <point x="868" y="-24"/>
      <point x="1006" y="74"/>
      <point x="1082" y="220" type="curve"/>
      <point x="868" y="342" type="line"/>
      <point x="828" y="256"/>
      <point x="764" y="196"/>
      <point x="642" y="196" type="curve" smooth="yes"/>
      <point x="496" y="196"/>
      <point x="416" y="280"/>
      <point x="412" y="418" type="curve"/>
      <point x="736" y="418" type="line"/>
      <point x="736" y="614" type="line"/>
      <point x="412" y="614" type="line"/>
      <point x="416" y="752"/>
      <point x="498" y="836"/>
      <point x="640" y="836" type="curve" smooth="yes"/>
      <point x="756" y="836"/>
      <point x="816" y="776"/>
      <point x="852" y="688" type="curve"/>
      <point x="1070" y="804" type="line"/>
      <point x="998" y="954"/>
      <point x="866" y="1056"/>
      <point x="640" y="1056" type="curve" smooth="yes"/>
      <point x="318" y="1056"/>
      <point x="120" y="850"/>
      <point x="120" y="516" type="curve" smooth="yes"/>
      <point x="120" y="182"/>
      <point x="316" y="-24"/>
    </contour>
  </outline>
</glyph>
<glyph name="uni0472" format="1">
  <unicode hex="0472"/>
  <advance width="1200" height="1560"/>
  <outline>
    <contour>
      <point x="600" y="-24" type="curve" smooth="yes" name="hr00"/>
      <point x="974" y="-24"/>
      <point x="1146" y="242"/>
      <point x="1146" y="698" type="curve" smooth="yes"/>
      <point x="1146" y="1154"/>
      <point x="974" y="1420"/>
      <point x="600" y="1420" type="curve" smooth="yes"/>
      <point x="226" y="1420"/>
      <point x="54" y="1154"/>
      <point x="54" y="698" type="curve" smooth="yes"/>
      <point x="54" y="242"/>
      <point x="226" y="-24"/>
    </contour>
    <contour>
      <point x="600" y="194" type="curve" smooth="yes"/>
      <point x="418" y="194"/>
      <point x="350" y="316"/>
      <point x="350" y="570" type="curve" smooth="yes"/>
      <point x="350" y="584" type="line"/>
      <point x="850" y="584" type="line"/>
      <point x="850" y="570" type="line" smooth="yes"/>
      <point x="850" y="316"/>
      <point x="782" y="194"/>
    </contour>
    <contour>
      <point x="600" y="1202" type="curve" smooth="yes"/>
      <point x="780" y="1202"/>
      <point x="848" y="1080"/>
      <point x="850" y="830" type="curve"/>
      <point x="350" y="830" type="line"/>
      <point x="350" y="1080"/>
      <point x="418" y="1202"/>
    </contour>
  </outline>
</glyph>
<glyph name="uni0473" format="1">
  <unicode hex="0473"/>
  <advance width="1200" height="1560"/>
  <outline>
    <contour>
      <point x="600" y="-24" type="curve" smooth="yes" name="hr00"/>
      <point x="922" y="-24"/>
      <point x="1118" y="182"/>
      <point x="1118" y="516" type="curve" smooth="yes"/>
      <point x="1118" y="850"/>
      <point x="922" y="1056"/>
      <point x="600" y="1056" type="curve" smooth="yes"/>
      <point x="278" y="1056"/>
      <point x="82" y="850"/>
      <point x="82" y="516" type="curve" smooth="yes"/>
      <point x="82" y="182"/>
      <point x="278" y="-24"/>
    </contour>
    <contour>
      <point x="600" y="174" type="curve" smooth="yes"/>
      <point x="450" y="174"/>
      <point x="366" y="256"/>
      <point x="366" y="424" type="curve"/>
      <point x="834" y="424" type="line"/>
      <point x="832" y="256"/>
      <point x="748" y="174"/>
    </contour>
    <contour>
      <point x="600" y="858" type="curve" smooth="yes"/>
      <point x="744" y="858"/>
      <point x="828" y="778"/>
      <point x="834" y="620" type="curve"/>
      <point x="366" y="620" type="line"/>
      <point x="370" y="778"/>
      <point x="454" y="858"/>
    </contour>
  </outline>
</glyph>
<glyph name="uni0496" format="1">
  <unicode hex="0496"/>
  <advance width="1200" height="1560"/>
  <outline>
    <contour>
      <point x="1028" y="-300" type="line" name="hr00"/>
      <point x="1248" y="-300" type="line"/>
      <point x="1248" y="226" type="line"/>
      <point x="1126" y="226" type="line"/>
      <point x="1074" y="498" type="line" smooth="yes"/>
      <point x="1050" y="630"/>
      <point x="1000" y="694"/>
      <point x="900" y="714" type="curve"/>
      <point x="900" y="726" type="line"/>
      <point x="984" y="750"/>
      <point x="1036" y="806"/>
      <point x="1060" y="930" type="curve" smooth="yes"/>
      <point x="1148" y="1396" type="line"/>
      <point x="894" y="1396" type="line"/>
      <point x="786" y="820" type="line"/>
      <point x="706" y="820" type="line"/>
      <point x="706" y="1396" type="line"/>
      <point x="446" y="1396" type="line"/>
      <point x="446" y="820" type="line"/>
      <point x="366" y="820" type="line"/>
      <point x="258" y="1396" type="line"/>
      <point x="4" y="1396" type="line"/>
      <point x="92" y="930" type="line" smooth="yes"/>
      <point x="116" y="806"/>
      <point x="168" y="750"/>
      <point x="252" y="726" type="curve"/>
      <point x="252" y="714" type="line"/>
      <point x="152" y="694"/>
      <point x="102" y="630"/>
      <point x="78" y="498" type="curve" smooth="yes"/>
      <point x="-16" y="0" type="line"/>
      <point x="254" y="0" type="line"/>
      <point x="366" y="594" type="line"/>
      <point x="446" y="594" type="line"/>
      <point x="446" y="0" type="line"/>
      <point x="706" y="0" type="line"/>
      <point x="706" y="594" type="line"/>
      <point x="786" y="594" type="line"/>
      <point x="898" y="0" type="line"/>
      <point x="1028" y="0" type="line"/>
    </contour>
  </outline>
</glyph>
<glyph name="uni0499" format="1">
  <unicode hex="0499"/>
  <advance width="1200" height="1560"/>
  <outline>
    <contour>
      <point x="444" y="-280" type="line" name="hr00"/>
      <point x="712" y="-280" type="line"/>
      <point x="712" y="-16" type="line"/>
      <point x="946" y="14"/>
      <point x="1072" y="130"/>
      <point x="1072" y="288" type="curve" smooth="yes"/>
      <point x="1072" y="424"/>
      <point x="974" y="514"/>
      <point x="838" y="534" type="curve"/>
      <point x="838" y="544" type="line"/>
      <point x="966" y="568"/>
      <point x="1052" y="648"/>
      <point x="1052" y="776" type="curve" smooth="yes"/>
      <point x="1052" y="936"/>
      <point x="886" y="1056"/>
      <point x="598" y="1056" type="curve" smooth="yes"/>
      <point x="376" y="1056"/>
      <point x="238" y="986"/>
      <point x="130" y="870" type="curve"/>
      <point x="294" y="718" type="line"/>
      <point x="370" y="798"/>
      <point x="454" y="836"/>
      <point x="572" y="836" type="curve" smooth="yes"/>
      <point x="694" y="836"/>
      <point x="754" y="786"/>
      <point x="754" y="726" type="curve" smooth="yes"/>
      <point x="754" y="714" type="line" smooth="yes"/>
      <point x="754" y="652"/>
      <point x="720" y="614"/>
      <point x="636" y="614" type="curve" smooth="yes"/>
      <point x="420" y="614" type="line"/>
      <point x="420" y="418" type="line"/>
      <point x="662" y="418" type="line" smooth="yes"/>
      <point x="740" y="418"/>
      <point x="774" y="384"/>
      <point x="774" y="326" type="curve" smooth="yes"/>
      <point x="774" y="314" type="line" smooth="yes"/>
      <point x="774" y="242"/>
      <point x="708" y="196"/>
      <point x="586" y="196" type="curve" smooth="yes"/>
      <point x="440" y="196"/>
      <point x="352" y="238"/>
      <point x="272" y="326" type="curve"/>
      <point x="102" y="168" type="line"/>
      <point x="170" y="76"/>
      <point x="290" y="10"/>
      <point x="444" y="-14" type="curve"/>
    </contour>
  </outline>
</glyph>
<glyph name="uni04A1" format="1">
  <unicode hex="04A1"/>
  <advance width="1200" height="1560"/>
  <outline>
    <contour>
      <point x="240" y="0" type="line" name="hr00"/>
      <point x="536" y="0" type="line"/>
      <point x="536" y="410" type="line"/>
      <point x="656" y="410" type="line"/>
      <point x="772" y="162" type="line" smooth="yes"/>
      <point x="830" y="40"/>
      <point x="910" y="0"/>
      <point x="1020" y="0" type="curve" smooth="yes"/>
      <point x="1158" y="0" type="line"/>
      <point x="1158" y="230" type="line"/>
      <point x="1048" y="230" type="line"/>
      <point x="972" y="392" type="line" smooth="yes"/>
      <point x="932" y="476"/>
      <point x="888" y="516"/>
      <point x="806" y="532" type="curve"/>
      <point x="806" y="544" type="line"/>
      <point x="876" y="560"/>
      <point x="924" y="590"/>
      <point x="968" y="670" type="curve" smooth="yes"/>
      <point x="1162" y="1032" type="line"/>
      <point x="848" y="1032" type="line"/>
      <point x="656" y="636" type="line"/>
      <point x="536" y="636" type="line"/>
      <point x="536" y="1032" type="line"/>
      <point x="10" y="1032" type="line"/>
      <point x="10" y="802" type="line"/>
      <point x="240" y="802" type="line"/>
    </contour>
  </outline>
</glyph>
<glyph name="uni04A2" format="1">
  <unicode hex="04A2"/>
  <advance width="1200" height="1560"/>
  <outline>
    <contour>
      <point x="882" y="-300" type="line" name="hr00"/>
      <point x="1166" y="-300" type="line"/>
      <point x="1166" y="246" type="line"/>
      <point x="1012" y="246" type="line"/>
      <point x="1012" y="1396" type="line"/>
      <point x="710" y="1396" type="line"/>
      <point x="710" y="830" type="line"/>
      <point x="396" y="830" type="line"/>
      <point x="396" y="1396" type="line"/>
      <point x="94" y="1396" type="line"/>
      <point x="94" y="0" type="line"/>
      <point x="396" y="0" type="line"/>
      <point x="396" y="584" type="line"/>
      <point x="710" y="584" type="line"/>
      <point x="710" y="0" type="line"/>
      <point x="882" y="0" type="line"/>
    </contour>
  </outline>
</glyph>
<glyph name="uni04B0" format="1">
  <unicode hex="04B0"/>
  <advance width="1200" height="1560"/>
  <outline>
    <contour>
      <point x="190" y="494" type="line" name="hr00"/>
      <point x="190" y="266" type="line"/>
      <point x="450" y="266" type="line"/>
      <point x="450" y="0" type="line"/>
      <point x="750" y="0" type="line"/>
      <point x="750" y="266" type="line"/>
      <point x="1010" y="266" type="line"/>
      <point x="1010" y="494" type="line"/>
      <point x="750" y="494" type="line"/>
      <point x="1192" y="1396" type="line"/>
      <point x="870" y="1396" type="line"/>
      <point x="722" y="1072" type="line"/>
      <point x="614" y="798" type="line"/>
      <point x="598" y="798" type="line"/>
      <point x="490" y="1072" type="line"/>
      <point x="342" y="1396" type="line"/>
      <point x="8" y="1396" type="line"/>
      <point x="450" y="494" type="line"/>
    </contour>
  </outline>
</glyph>
<glyph name="baht" format="1">
  <unicode hex="0E3F"/>
  <advance width="1200" height="1560"/>
  <outline>
    <contour>
      <point x="716" y="0" type="line"/>
      <point x="718" y="0" type="line"/>
      <point x="980" y="0"/>
      <point x="1136" y="150"/>
      <point x="1136" y="384" type="curve" smooth="yes"/>
      <point x="1136" y="570"/>
      <point x="1036" y="678"/>
      <point x="866" y="718" type="curve"/>
      <point x="866" y="730" type="line"/>
      <point x="1016" y="772"/>
      <point x="1096" y="868"/>
      <point x="1096" y="1024" type="curve" smooth="yes" name="hr01"/>
      <point x="1096" y="1234"/>
      <point x="958" y="1382"/>
      <point x="716" y="1394" type="curve"/>
      <point x="716" y="1622" type="line"/>
      <point x="488" y="1622" type="line"/>
      <point x="488" y="1396" type="line"/>
      <point x="128" y="1396" type="line"/>
      <point x="128" y="0" type="line"/>
      <point x="488" y="0" type="line"/>
      <point x="488" y="-226" type="line"/>
      <point x="716" y="-226" type="line"/>
    </contour>
    <contour>
      <point x="396" y="802" type="line"/>
      <point x="396" y="1188" type="line"/>
      <point x="508" y="1188" type="line"/>
      <point x="508" y="802" type="line"/>
    </contour>
    <contour>
      <point x="696" y="1180" type="line"/>
      <point x="770" y="1162"/>
      <point x="808" y="1116"/>
      <point x="808" y="1028" type="curve" smooth="yes"/>
      <point x="808" y="962" type="line" smooth="yes"/>
      <point x="808" y="874"/>
      <point x="770" y="828"/>
      <point x="696" y="810" type="curve"/>
    </contour>
    <contour>
      <point x="396" y="208" type="line"/>
      <point x="396" y="604" type="line"/>
      <point x="508" y="604" type="line"/>
      <point x="508" y="208" type="line"/>
    </contour>
    <contour>
      <point x="696" y="602" type="line"/>
      <point x="796" y="592"/>
      <point x="848" y="550"/>
      <point x="848" y="442" type="curve" smooth="yes" name="hr02"/>
      <point x="848" y="370" type="line" smooth="yes"/>
      <point x="848" y="262"/>
      <point x="796" y="220"/>
      <point x="696" y="210" type="curve"/>
    </contour>
  </outline>
</glyph>
<glyph name="quoteleft" format="1">
  <unicode hex="2018"/>
  <advance width="1200" height="1560"/>
  <outline>
    <contour>
      <point x="324" y="828" type="line" name="hr00"/>
      <point x="704" y="828" type="line"/>
      <point x="818" y="1480" type="line"/>
      <point x="600" y="1480" type="line"/>
    </contour>
  </outline>
</glyph>
<glyph name="quotesinglbase" format="1">
  <unicode hex="201A"/>
  <advance width="1200" height="1560"/>
  <outline>
    <contour>
      <point x="340" y="-302" type="line" name="hr00"/>
      <point x="560" y="-302" type="line"/>
      <point x="834" y="348" type="line"/>
      <point x="454" y="348" type="line"/>
    </contour>
  </outline>
</glyph>
<glyph name="dagger" format="1">
  <unicode hex="2020"/>
  <advance width="1200" height="1560"/>
  <outline>
    <contour>
      <point x="726" y="-400" type="line" name="hr00"/>
      <point x="726" y="816" type="line"/>
      <point x="1078" y="816" type="line"/>
      <point x="1078" y="1032" type="line"/>
      <point x="726" y="1032" type="line"/>
      <point x="726" y="1480" type="line"/>
      <point x="474" y="1480" type="line"/>
      <point x="474" y="1032" type="line"/>
      <point x="122" y="1032" type="line"/>
      <point x="122" y="816" type="line"/>
      <point x="474" y="816" type="line"/>
      <point x="474" y="-400" type="line"/>
    </contour>
  </outline>
</glyph>
<glyph name="daggerdbl" format="1">
  <unicode hex="2021"/>
  <advance width="1200" height="1560"/>
  <outline>
    <contour>
      <point x="726" y="-400" type="line" name="hr00"/>
      <point x="726" y="48" type="line"/>
      <point x="1078" y="48" type="line"/>
      <point x="1078" y="264" type="line"/>
      <point x="726" y="264" type="line"/>
      <point x="726" y="816" type="line"/>
      <point x="1078" y="816" type="line"/>
      <point x="1078" y="1032" type="line"/>
      <point x="726" y="1032" type="line"/>
      <point x="726" y="1480" type="line"/>
      <point x="474" y="1480" type="line"/>
      <point x="474" y="1032" type="line"/>
      <point x="122" y="1032" type="line"/>
      <point x="122" y="816" type="line"/>
      <point x="474" y="816" type="line"/>
      <point x="474" y="264" type="line"/>
      <point x="122" y="264" type="line"/>
      <point x="122" y="48" type="line"/>
      <point x="474" y="48" type="line"/>
      <point x="474" y="-400" type="line"/>
    </contour>
  </outline>
</glyph>
<glyph name="ellipsis" format="1">
  <unicode hex="2026"/>
  <advance width="1200" height="1560"/>
  <outline>
    <contour>
      <point x="204" y="-14" type="curve" smooth="yes" name="hr00"/>
      <point x="300" y="-14"/>
      <point x="348" y="36"/>
      <point x="348" y="94" type="curve" smooth="yes"/>
      <point x="348" y="186" type="line" smooth="yes"/>
      <point x="348" y="244"/>
      <point x="300" y="294"/>
      <point x="204" y="294" type="curve" smooth="yes"/>
      <point x="104" y="294"/>
      <point x="58" y="244"/>
      <point x="58" y="186" type="curve" smooth="yes"/>
      <point x="58" y="94" type="line" smooth="yes"/>
      <point x="58" y="36"/>
      <point x="104" y="-14"/>
    </contour>
    <contour>
      <point x="600" y="-14" type="curve" smooth="yes"/>
      <point x="698" y="-14"/>
      <point x="746" y="36"/>
      <point x="746" y="94" type="curve" smooth="yes"/>
      <point x="746" y="186" type="line" smooth="yes"/>
      <point x="746" y="244"/>
      <point x="698" y="294"/>
      <point x="600" y="294" type="curve" smooth="yes"/>
      <point x="502" y="294"/>
      <point x="454" y="244"/>
      <point x="454" y="186" type="curve" smooth="yes"/>
      <point x="454" y="94" type="line" smooth="yes"/>
      <point x="454" y="36"/>
      <point x="502" y="-14"/>
    </contour>
    <contour>
      <point x="996" y="-14" type="curve" smooth="yes"/>
      <point x="1094" y="-14"/>
      <point x="1142" y="36"/>
      <point x="1142" y="94" type="curve" smooth="yes"/>
      <point x="1142" y="186" type="line" smooth="yes"/>
      <point x="1142" y="244"/>
      <point x="1094" y="294"/>
      <point x="996" y="294" type="curve" smooth="yes"/>
      <point x="900" y="294"/>
      <point x="852" y="244"/>
      <point x="852" y="186" type="curve" smooth="yes"/>
      <point x="852" y="94" type="line" smooth="yes"/>
      <point x="852" y="36"/>
      <point x="900" y="-14"/>
    </contour>
  </outline>
</glyph>
<glyph name="fraction" format="1">
  <unicode hex="2044"/>
  <advance width="1200" height="1560"/>
  <outline>
    <contour>
      <point x="646" y="796" type="line" name="hr00"/>
      <point x="852" y="796" type="line"/>
      <point x="1198" y="1396" type="line"/>
      <point x="992" y="1396" type="line"/>
    </contour>
    <contour>
      <point x="2" y="0" type="line"/>
      <point x="208" y="0" type="line"/>
      <point x="554" y="600" type="line"/>
      <point x="348" y="600" type="line"/>
    </contour>
  </outline>
</glyph>
<glyph name="ninesuperior" format="1">
  <unicode hex="2079"/>
  <advance width="1200" height="1560"/>
  <outline>
    <contour>
      <point x="910" y="1110" type="curve" smooth="yes" name="hr00"/>
      <point x="910" y="1288"/>
      <point x="798" y="1408"/>
      <point x="598" y="1408" type="curve" smooth="yes"/>
      <point x="408" y="1408"/>
      <point x="288" y="1296"/>
      <point x="288" y="1140" type="curve" smooth="yes"/>
      <point x="288" y="1000"/>
      <point x="388" y="908"/>
      <point x="516" y="908" type="curve" smooth="yes"/>
      <point x="620" y="908"/>
      <point x="660" y="970"/>
      <point x="684" y="1024" type="curve"/>
      <point x="696" y="1020" type="line"/>
      <point x="670" y="896"/>
      <point x="544" y="796"/>
      <point x="340" y="658" type="curve"/>
      <point x="626" y="658" type="line"/>
      <point x="766" y="748"/>
      <point x="910" y="908"/>
    </contour>
    <contour>
      <point x="598" y="1058" type="curve" smooth="yes"/>
      <point x="536" y="1058"/>
      <point x="500" y="1090"/>
      <point x="500" y="1146" type="curve" smooth="yes"/>
      <point x="500" y="1166" type="line" smooth="yes"/>
      <point x="500" y="1224"/>
      <point x="532" y="1258"/>
      <point x="600" y="1258" type="curve" smooth="yes"/>
      <point x="664" y="1258"/>
      <point x="698" y="1224"/>
      <point x="698" y="1166" type="curve" smooth="yes"/>
      <point x="698" y="1146" type="line" smooth="yes"/>
      <point x="698" y="1090"/>
      <point x="660" y="1058"/>
    </contour>
  </outline>
</glyph>
<glyph name="twoinferior" format="1">
  <unicode hex="2082"/>
  <advance width="1200" height="1560"/>
  <outline>
    <contour>
      <point x="900" y="166" type="line" name="hr00"/>
      <point x="546" y="166" type="line"/>
      <point x="664" y="232" type="line" smooth="yes"/>
      <point x="782" y="298"/>
      <point x="892" y="386"/>
      <point x="892" y="522" type="curve" smooth="yes"/>
      <point x="892" y="654"/>
      <point x="788" y="750"/>
      <point x="608" y="750" type="curve" smooth="yes"/>
      <point x="440" y="750"/>
      <point x="338" y="666"/>
      <point x="300" y="554" type="curve"/>
      <point x="478" y="488" type="line"/>
      <point x="492" y="536"/>
      <point x="522" y="578"/>
      <point x="588" y="578" type="curve" smooth="yes"/>
      <point x="626" y="578"/>
      <point x="674" y="564"/>
      <point x="674" y="510" type="curve"/>
      <point x="674" y="508" type="line"/>
      <point x="674" y="448"/>
      <point x="640" y="418"/>
      <point x="540" y="342" type="curve" smooth="yes"/>
      <point x="322" y="176" type="line"/>
      <point x="322" y="0" type="line"/>
      <point x="900" y="0" type="line"/>
    </contour>
  </outline>
</glyph>
<glyph name="lira" format="1">
  <unicode hex="20A4"/>
  <advance width="1200" height="1560"/>
  <outline>
    <contour>
      <point x="1106" y="256" type="line"/>
      <point x="448" y="256" type="line"/>
      <point x="448" y="274" type="line"/>
      <point x="494" y="298"/>
      <point x="546" y="338"/>
      <point x="576" y="400" type="curve"/>
      <point x="848" y="400" type="line"/>
      <point x="848" y="578" type="line"/>
      <point x="600" y="578" type="line"/>
      <point x="592" y="626"/>
      <point x="574" y="672"/>
      <point x="556" y="714" type="curve"/>
      <point x="848" y="714" type="line"/>
      <point x="848" y="892" type="line"/>
      <point x="486" y="892" type="line"/>
      <point x="480" y="914"/>
      <point x="478" y="936"/>
      <point x="478" y="960" type="curve" smooth="yes" name="hr01"/>
      <point x="478" y="1088"/>
      <point x="556" y="1162"/>
      <point x="680" y="1162" type="curve" smooth="yes"/>
      <point x="790" y="1162"/>
      <point x="858" y="1104"/>
      <point x="920" y="1024" type="curve"/>
      <point x="1118" y="1210" type="line"/>
      <point x="1016" y="1344"/>
      <point x="872" y="1420"/>
      <point x="670" y="1420" type="curve" smooth="yes"/>
      <point x="372" y="1420"/>
      <point x="172" y="1254"/>
      <point x="172" y="1008" type="curve" smooth="yes"/>
      <point x="172" y="966"/>
      <point x="178" y="928"/>
      <point x="186" y="892" type="curve"/>
      <point x="98" y="892" type="line"/>
      <point x="98" y="714" type="line"/>
      <point x="254" y="714" type="line"/>
      <point x="274" y="668"/>
      <point x="292" y="624"/>
      <point x="302" y="578" type="curve" name="hr02"/>
      <point x="98" y="578" type="line"/>
      <point x="98" y="400" type="line"/>
      <point x="282" y="400" type="line"/>
      <point x="254" y="344"/>
      <point x="204" y="300"/>
      <point x="138" y="272" type="curve"/>
      <point x="138" y="0" type="line"/>
      <point x="1106" y="0" type="line"/>
    </contour>
  </outline>
</glyph>
<glyph name="kip" format="1">
  <unicode hex="20AD"/>
  <advance width="1200" height="1560"/>
  <outline>
    <contour>
      <point x="438" y="592" type="line" name="hr00"/>
      <point x="518" y="592" type="line"/>
      <point x="866" y="0" type="line"/>
      <point x="1202" y="0" type="line"/>
      <point x="840" y="592" type="line"/>
      <point x="1110" y="592" type="line"/>
      <point x="1110" y="832" type="line"/>
      <point x="820" y="832" type="line"/>
      <point x="1170" y="1396" type="line"/>
      <point x="848" y="1396" type="line"/>
      <point x="518" y="832" type="line"/>
      <point x="438" y="832" type="line"/>
      <point x="438" y="1396" type="line"/>
      <point x="138" y="1396" type="line"/>
      <point x="138" y="832" type="line"/>
      <point x="38" y="832" type="line"/>
      <point x="38" y="592" type="line"/>
      <point x="138" y="592" type="line"/>
      <point x="138" y="0" type="line"/>
      <point x="438" y="0" type="line"/>
    </contour>
  </outline>
</glyph>
<glyph name="tugrik" format="1">
  <unicode hex="20AE"/>
  <advance width="1200" height="1560"/>
  <outline>
    <contour>
      <point x="1000" y="468" type="line" name="hr00"/>
      <point x="1000" y="668" type="line"/>
      <point x="742" y="556" type="line"/>
      <point x="742" y="724" type="line"/>
      <point x="1000" y="836" type="line"/>
      <point x="1000" y="1036" type="line"/>
      <point x="742" y="924" type="line"/>
      <point x="742" y="1162" type="line"/>
      <point x="1152" y="1162" type="line"/>
      <point x="1152" y="1396" type="line"/>
      <point x="48" y="1396" type="line"/>
      <point x="48" y="1162" type="line"/>
      <point x="458" y="1162" type="line"/>
      <point x="458" y="800" type="line"/>
      <point x="200" y="688" type="line"/>
      <point x="200" y="488" type="line"/>
      <point x="458" y="600" type="line"/>
      <point x="458" y="432" type="line"/>
      <point x="200" y="320" type="line"/>
      <point x="200" y="120" type="line"/>
      <point x="458" y="232" type="line"/>
      <point x="458" y="0" type="line"/>
      <point x="742" y="0" type="line"/>
      <point x="742" y="356" type="line"/>
    </contour>
  </outline>
</glyph>
<glyph name="peso" format="1">
  <unicode hex="20B1"/>
  <advance width="1200" height="1560"/>
  <outline>
    <contour>
      <point x="436" y="342" type="line" name="hr00"/>
      <point x="636" y="342" type="line" smooth="yes"/>
      <point x="848" y="342"/>
      <point x="984" y="426"/>
      <point x="1036" y="634" type="curve"/>
      <point x="1158" y="634" type="line"/>
      <point x="1158" y="822" type="line"/>
      <point x="1062" y="822" type="line"/>
      <point x="1062" y="920" type="line"/>
      <point x="1158" y="920" type="line"/>
      <point x="1158" y="1108" type="line"/>
      <point x="1036" y="1108" type="line"/>
      <point x="982" y="1312"/>
      <point x="846" y="1396"/>
      <point x="636" y="1396" type="curve" smooth="yes"/>
      <point x="152" y="1396" type="line"/>
      <point x="152" y="1108" type="line"/>
      <point x="50" y="1108" type="line"/>
      <point x="50" y="920" type="line"/>
      <point x="152" y="920" type="line"/>
      <point x="152" y="822" type="line"/>
      <point x="50" y="822" type="line"/>
      <point x="50" y="634" type="line"/>
      <point x="152" y="634" type="line"/>
      <point x="152" y="0" type="line"/>
      <point x="436" y="0" type="line"/>
    </contour>
    <contour>
      <point x="436" y="1208" type="line"/>
      <point x="586" y="1208" type="line" smooth="yes"/>
      <point x="696" y="1208"/>
      <point x="744" y="1174"/>
      <point x="764" y="1098" type="curve"/>
      <point x="436" y="1098" type="line"/>
    </contour>
    <contour>
      <point x="436" y="814" type="line"/>
      <point x="436" y="928" type="line"/>
      <point x="774" y="928" type="line"/>
      <point x="774" y="814" type="line"/>
    </contour>
    <contour>
      <point x="436" y="532" type="line"/>
      <point x="436" y="644" type="line"/>
      <point x="766" y="644" type="line"/>
      <point x="748" y="566"/>
      <point x="700" y="532"/>
      <point x="586" y="532" type="curve" smooth="yes"/>
    </contour>
  </outline>
</glyph>
<glyph name="guarani" format="1">
  <unicode hex="20B2"/>
  <advance width="1200" height="1560"/>
  <outline>
    <contour>
      <point x="360" y="-226" type="line" name="hr00"/>
      <point x="592" y="-226" type="line"/>
      <point x="620" y="-26" type="line"/>
      <point x="918" y="-18"/>
      <point x="1090" y="176"/>
      <point x="1090" y="468" type="curve" smooth="yes"/>
      <point x="1090" y="746" type="line"/>
      <point x="708" y="746" type="line"/>
      <point x="764" y="1136" type="line"/>
      <point x="808" y="1098"/>
      <point x="834" y="1044"/>
      <point x="852" y="984" type="curve"/>
      <point x="1078" y="1064" type="line"/>
      <point x="1030" y="1224"/>
      <point x="946" y="1330"/>
      <point x="820" y="1382" type="curve"/>
      <point x="852" y="1622" type="line"/>
      <point x="620" y="1622" type="line"/>
      <point x="592" y="1420" type="line"/>
      <point x="234" y="1414"/>
      <point x="70" y="1152"/>
      <point x="70" y="700" type="curve" smooth="yes"/>
      <point x="70" y="338"/>
      <point x="174" y="98"/>
      <point x="394" y="10" type="curve"/>
    </contour>
    <contour>
      <point x="448" y="264" type="line"/>
      <point x="392" y="322"/>
      <point x="368" y="424"/>
      <point x="368" y="574" type="curve" smooth="yes"/>
      <point x="368" y="820" type="line" smooth="yes"/>
      <point x="368" y="1054"/>
      <point x="430" y="1176"/>
      <point x="580" y="1188" type="curve"/>
    </contour>
    <contour>
      <point x="632" y="204" type="curve"/>
      <point x="678" y="534" type="line"/>
      <point x="832" y="534" type="line"/>
      <point x="832" y="436" type="line" smooth="yes"/>
      <point x="832" y="314"/>
      <point x="776" y="214"/>
    </contour>
  </outline>
</glyph>
<glyph name="cedi" format="1">
  <unicode hex="20B5"/>
  <advance width="1200" height="1560"/>
  <outline>
    <contour>
      <point x="372" y="-226" type="line" name="hr00"/>
      <point x="602" y="-226" type="line"/>
      <point x="630" y="-24" type="line"/>
      <point x="632" y="-24" type="line"/>
      <point x="920" y="-24"/>
      <point x="1070" y="134"/>
      <point x="1126" y="378" type="curve"/>
      <point x="862" y="442" type="line"/>
      <point x="834" y="314"/>
      <point x="776" y="206"/>
      <point x="642" y="202" type="curve"/>
      <point x="776" y="1152" type="line"/>
      <point x="828" y="1116"/>
      <point x="856" y="1056"/>
      <point x="878" y="990" type="curve"/>
      <point x="1112" y="1068" type="line"/>
      <point x="1070" y="1212"/>
      <point x="986" y="1334"/>
      <point x="830" y="1390" type="curve"/>
      <point x="862" y="1622" type="line"/>
      <point x="632" y="1622" type="line"/>
      <point x="604" y="1420" type="line"/>
      <point x="252" y="1404"/>
      <point x="82" y="1148"/>
      <point x="82" y="698" type="curve" smooth="yes"/>
      <point x="82" y="344"/>
      <point x="186" y="106"/>
      <point x="406" y="16" type="curve"/>
    </contour>
    <contour>
      <point x="460" y="274" type="line"/>
      <point x="406" y="336"/>
      <point x="382" y="438"/>
      <point x="382" y="576" type="curve" smooth="yes"/>
      <point x="382" y="820" type="line" smooth="yes"/>
      <point x="382" y="1070"/>
      <point x="460" y="1172"/>
      <point x="590" y="1192" type="curve"/>
    </contour>
  </outline>
</glyph>
<glyph name="ruble" format="1">
  <unicode hex="20BD"/>
  <advance width="1200" height="1560"/>
  <outline>
    <contour>
      <point x="898" y="228" type="line" name="hr00"/>
      <point x="898" y="446" type="line"/>
      <point x="486" y="446" type="line"/>
      <point x="486" y="550" type="line"/>
      <point x="704" y="550" type="line"/>
      <point x="978" y="550"/>
      <point x="1130" y="714"/>
      <point x="1130" y="972" type="curve" smooth="yes"/>
      <point x="1130" y="1230"/>
      <point x="978" y="1396"/>
      <point x="704" y="1396" type="curve" smooth="yes"/>
      <point x="184" y="1396" type="line"/>
      <point x="184" y="768" type="line"/>
      <point x="64" y="768" type="line"/>
      <point x="64" y="550" type="line"/>
      <point x="184" y="550" type="line"/>
      <point x="184" y="446" type="line"/>
      <point x="64" y="446" type="line"/>
      <point x="64" y="228" type="line"/>
      <point x="184" y="228" type="line"/>
      <point x="184" y="0" type="line"/>
      <point x="486" y="0" type="line"/>
      <point x="486" y="228" type="line"/>
    </contour>
    <contour>
      <point x="486" y="1174" type="line"/>
      <point x="628" y="1174" type="line" smooth="yes"/>
      <point x="768" y="1174"/>
      <point x="816" y="1124"/>
      <point x="816" y="1002" type="curve" smooth="yes"/>
      <point x="816" y="940" type="line" smooth="yes"/>
      <point x="816" y="818"/>
      <point x="768" y="768"/>
      <point x="628" y="768" type="curve" smooth="yes"/>
      <point x="486" y="768" type="line"/>
    </contour>
  </outline>
</glyph>
<glyph name="bitcoin" format="1">
  <unicode hex="20BF"/>
  <advance width="1200" height="1560"/>
  <outline>
    <contour>
      <point x="626" y="-226" type="line"/>
      <point x="794" y="-226" type="line"/>
      <point x="794" y="8" type="line"/>
      <point x="994" y="44"/>
      <point x="1112" y="182"/>
      <point x="1112" y="384" type="curve" smooth="yes"/>
      <point x="1112" y="572"/>
      <point x="1014" y="676"/>
      <point x="840" y="718" type="curve"/>
      <point x="840" y="730" type="line"/>
      <point x="992" y="774"/>
      <point x="1068" y="868"/>
      <point x="1068" y="1024" type="curve" smooth="yes" name="hr01"/>
      <point x="1068" y="1206"/>
      <point x="972" y="1334"/>
      <point x="794" y="1378" type="curve" name="hr02"/>
      <point x="794" y="1622" type="line"/>
      <point x="626" y="1622" type="line"/>
      <point x="626" y="1396" type="line"/>
      <point x="504" y="1396" type="line"/>
      <point x="504" y="1622" type="line"/>
      <point x="336" y="1622" type="line"/>
      <point x="336" y="1396" type="line"/>
      <point x="154" y="1396" type="line" name="hr03"/>
      <point x="154" y="0" type="line"/>
      <point x="336" y="0" type="line" name="hr04"/>
      <point x="336" y="-226" type="line"/>
      <point x="504" y="-226" type="line"/>
      <point x="504" y="0" type="line"/>
      <point x="626" y="0" type="line"/>
    </contour>
    <contour>
      <point x="446" y="1194" type="line" name="hr05"/>
      <point x="560" y="1194" type="line" smooth="yes"/>
      <point x="700" y="1194"/>
      <point x="762" y="1152"/>
      <point x="762" y="1028" type="curve" smooth="yes"/>
      <point x="762" y="970" type="line" smooth="yes"/>
      <point x="762" y="848"/>
      <point x="700" y="804"/>
      <point x="560" y="804" type="curve" smooth="yes"/>
      <point x="446" y="804" type="line"/>
    </contour>
    <contour>
      <point x="446" y="604" type="line"/>
      <point x="598" y="604" type="line" smooth="yes"/>
      <point x="742" y="604"/>
      <point x="806" y="560"/>
      <point x="806" y="434" type="curve" smooth="yes" name="hr06"/>
      <point x="806" y="374" type="line" smooth="yes"/>
      <point x="806" y="248"/>
      <point x="742" y="202"/>
      <point x="598" y="202" type="curve" smooth="yes"/>
      <point x="446" y="202" type="line"/>
    </contour>
  </outline>
</glyph>
<glyph name="Omega" format="1">
  <unicode hex="2126"/>
  <advance width="1200" height="1560"/>
  <outline>
    <contour>
      <point x="54" y="0" type="line"/>
      <point x="540" y="0" type="line"/>
      <point x="540" y="346" type="line"/>
      <point x="430" y="406"/>
      <point x="388" y="542"/>
      <point x="388" y="666" type="curve" smooth="yes" name="hr01"/>
      <point x="388" y="866" type="line" smooth="yes"/>
      <point x="388" y="1056"/>
      <point x="452" y="1168"/>
      <point x="600" y="1168" type="curve" smooth="yes"/>
      <point x="748" y="1168"/>
      <point x="812" y="1056"/>
      <point x="812" y="866" type="curve" smooth="yes"/>
      <point x="812" y="666" type="line" smooth="yes"/>
      <point x="812" y="542"/>
      <point x="770" y="406"/>
      <point x="660" y="346" type="curve" name="hr02"/>
      <point x="660" y="0" type="line"/>
      <point x="1146" y="0" type="line"/>
      <point x="1146" y="210" type="line"/>
      <point x="860" y="210" type="line"/>
      <point x="860" y="230" type="line"/>
      <point x="1034" y="314"/>
      <point x="1136" y="490"/>
      <point x="1136" y="810" type="curve" smooth="yes" name="hr03"/>
      <point x="1136" y="1194"/>
      <point x="952" y="1420"/>
      <point x="600" y="1420" type="curve" smooth="yes"/>
      <point x="248" y="1420"/>
      <point x="64" y="1194"/>
      <point x="64" y="810" type="curve" smooth="yes"/>
      <point x="64" y="490"/>
      <point x="166" y="314"/>
      <point x="340" y="230" type="curve" name="hr04"/>
      <point x="340" y="210" type="line"/>
      <point x="54" y="210" type="line"/>
    </contour>
  </outline>
</glyph>
<glyph name="arrowleft" format="1">
  <unicode hex="2190"/>
  <advance width="1200" height="1560"/>
  <outline>
    <contour>
      <point x="16" y="698" type="line" name="hr00"/>
      <point x="494" y="220" type="line"/>
      <point x="654" y="380" type="line"/>
      <point x="534" y="500" type="line"/>
      <point x="446" y="576" type="line"/>
      <point x="448" y="584" type="line"/>
      <point x="608" y="576" type="line"/>
      <point x="1144" y="576" type="line"/>
      <point x="1144" y="820" type="line"/>
      <point x="608" y="820" type="line"/>
      <point x="448" y="812" type="line"/>
      <point x="446" y="820" type="line"/>
      <point x="534" y="896" type="line"/>
      <point x="654" y="1016" type="line"/>
      <point x="494" y="1176" type="line"/>
    </contour>
  </outline>
</glyph>
<glyph name="arrowdown" format="1">
  <unicode hex="2193"/>
  <advance width="1200" height="1560"/>
  <outline>
    <contour>
      <point x="600" y="-24" type="line" name="hr00"/>
      <point x="1078" y="454" type="line"/>
      <point x="918" y="614" type="line"/>
      <point x="798" y="494" type="line"/>
      <point x="722" y="406" type="line"/>
      <point x="714" y="408" type="line"/>
      <point x="722" y="568" type="line"/>
      <point x="722" y="1396" type="line"/>
      <point x="478" y="1396" type="line"/>
      <point x="478" y="568" type="line"/>
      <point x="486" y="408" type="line"/>
      <point x="478" y="406" type="line"/>
      <point x="402" y="494" type="line"/>
      <point x="282" y="614" type="line"/>
      <point x="122" y="454" type="line"/>
    </contour>
  </outline>
</glyph>
<glyph name="arrowdownright" format="1">
  <unicode hex="2198"/>
  <advance width="1200" height="1560"/>
  <outline>
    <contour>
      <point x="1116" y="162" type="line" name="hr00"/>
      <point x="1116" y="838" type="line"/>
      <point x="890" y="838" type="line"/>
      <point x="890" y="668" type="line"/>
      <point x="898" y="552" type="line"/>
      <point x="892" y="548" type="line"/>
      <point x="784" y="666" type="line"/>
      <point x="206" y="1244" type="line"/>
      <point x="34" y="1072" type="line"/>
      <point x="612" y="494" type="line"/>
      <point x="730" y="386" type="line"/>
      <point x="726" y="380" type="line"/>
      <point x="610" y="388" type="line"/>
      <point x="440" y="388" type="line"/>
      <point x="440" y="162" type="line"/>
    </contour>
  </outline>
</glyph>
<glyph name="arrowdownleft" format="1">
  <unicode hex="2199"/>
  <advance width="1200" height="1560"/>
  <outline>
    <contour>
      <point x="84" y="162" type="line" name="hr00"/>
      <point x="760" y="162" type="line"/>
      <point x="760" y="388" type="line"/>
      <point x="590" y="388" type="line"/>
      <point x="474" y="380" type="line"/>
      <point x="470" y="386" type="line"/>
      <point x="588" y="494" type="line"/>
      <point x="1166" y="1072" type="line"/>
      <point x="994" y="1244" type="line"/>
      <point x="416" y="666" type="line"/>
      <point x="308" y="548" type="line"/>
      <point x="302" y="552" type="line"/>
      <point x="310" y="668" type="line"/>
      <point x="310" y="838" type="line"/>
      <point x="84" y="838" type="line"/>
    </contour>
  </outline>
</glyph>
<glyph name="arrowhookleft" format="1">
  <unicode hex="21A9"/>
  <advance width="1200" height="1560"/>
  <outline>
    <contour>
      <point x="0" y="596" type="line" name="hr00"/>
      <point x="478" y="118" type="line"/>
      <point x="638" y="278" type="line"/>
      <point x="518" y="398" type="line"/>
      <point x="430" y="474" type="line"/>
      <point x="432" y="482" type="line"/>
      <point x="592" y="474" type="line"/>
      <point x="736" y="474" type="line" smooth="yes"/>
      <point x="984" y="474"/>
      <point x="1200" y="610"/>
      <point x="1200" y="876" type="curve" smooth="yes"/>
      <point x="1200" y="1142"/>
      <point x="984" y="1278"/>
      <point x="736" y="1278" type="curve"/>
      <point x="736" y="1050" type="line"/>
      <point x="834" y="1050"/>
      <point x="922" y="1002"/>
      <point x="922" y="884" type="curve" smooth="yes"/>
      <point x="922" y="766"/>
      <point x="834" y="718"/>
      <point x="736" y="718" type="curve" smooth="yes"/>
      <point x="592" y="718" type="line"/>
      <point x="432" y="710" type="line"/>
      <point x="430" y="718" type="line"/>
      <point x="518" y="794" type="line"/>
      <point x="638" y="914" type="line"/>
      <point x="478" y="1074" type="line"/>
    </contour>
  </outline>
</glyph>
<glyph name="arrowhookright" format="1">
  <unicode hex="21AA"/>
  <advance width="1200" height="1560"/>
  <outline>
    <contour>
      <point x="1200" y="596" type="line" name="hr00"/>
      <point x="722" y="1074" type="line"/>
      <point x="562" y="914" type="line"/>
      <point x="682" y="794" type="line"/>
      <point x="770" y="718" type="line"/>
      <point x="768" y="710" type="line"/>
      <point x="608" y="718" type="line"/>
      <point x="464" y="718" type="line" smooth="yes"/>
      <point x="366" y="718"/>
      <point x="278" y="766"/>
      <point x="278" y="884" type="curve" smooth="yes"/>
      <point x="278" y="1002"/>
      <point x="366" y="1050"/>
      <point x="464" y="1050" type="curve"/>
      <point x="464" y="1278" type="line"/>
      <point x="216" y="1278"/>
      <point x="0" y="1142"/>
      <point x="0" y="876" type="curve" smooth="yes"/>
      <point x="0" y="610"/>
      <point x="216" y="474"/>
      <point x="464" y="474" type="curve" smooth="yes"/>
      <point x="608" y="474" type="line"/>
      <point x="768" y="482" type="line"/>
      <point x="770" y="474" type="line"/>
      <point x="682" y="398" type="line"/>
      <point x="562" y="278" type="line"/>
      <point x="722" y="118" type="line"/>
    </contour>
  </outline>
</glyph>
<glyph name="arrowdownleftcorner" format="1">
  <unicode hex="21B2"/>
  <advance width="1200" height="1560"/>
  <outline>
    <contour>
      <point x="48" y="478" type="line" name="hr00"/>
      <point x="526" y="0" type="line"/>
      <point x="686" y="160" type="line"/>
      <point x="566" y="280" type="line"/>
      <point x="478" y="356" type="line"/>
      <point x="480" y="364" type="line"/>
      <point x="640" y="356" type="line"/>
      <point x="1094" y="356" type="line"/>
      <point x="1094" y="1396" type="line"/>
      <point x="850" y="1396" type="line"/>
      <point x="850" y="600" type="line"/>
      <point x="640" y="600" type="line"/>
      <point x="480" y="592" type="line"/>
      <point x="478" y="600" type="line"/>
      <point x="566" y="676" type="line"/>
      <point x="686" y="796" type="line"/>
      <point x="526" y="956" type="line"/>
    </contour>
  </outline>
</glyph>
<glyph name="arrowdowncounterclockhalf" format="1">
  <unicode hex="21B6"/>
  <advance width="1200" height="1560"/>
  <outline>
    <contour>
      <point x="488" y="74" type="line" name="hr00"/>
      <point x="966" y="552" type="line"/>
      <point x="806" y="712" type="line"/>
      <point x="686" y="592" type="line"/>
      <point x="610" y="504" type="line"/>
      <point x="602" y="506" type="line"/>
      <point x="610" y="668" type="line"/>
      <point x="610" y="888" type="line" smooth="yes"/>
      <point x="610" y="1036"/>
      <point x="670" y="1112"/>
      <point x="766" y="1112" type="curve" smooth="yes"/>
      <point x="868" y="1112"/>
      <point x="928" y="1034"/>
      <point x="928" y="914" type="curve" smooth="yes"/>
      <point x="928" y="856" type="line"/>
      <point x="1172" y="856" type="line"/>
      <point x="1172" y="914" type="line" smooth="yes"/>
      <point x="1172" y="1162"/>
      <point x="1006" y="1338"/>
      <point x="766" y="1338" type="curve" smooth="yes"/>
      <point x="502" y="1338"/>
      <point x="366" y="1154"/>
      <point x="366" y="904" type="curve" smooth="yes"/>
      <point x="366" y="668" type="line"/>
      <point x="374" y="506" type="line"/>
      <point x="366" y="504" type="line"/>
      <point x="290" y="592" type="line"/>
      <point x="170" y="712" type="line"/>
      <point x="10" y="552" type="line"/>
    </contour>
  </outline>
</glyph>
<glyph name="arrowupleftcounterclock" format="1">
  <unicode hex="21BA"/>
  <advance width="1200" height="1560"/>
  <outline>
    <contour>
      <point x="500" y="1396" type="line" name="hr00"/>
      <point x="500" y="742" type="line"/>
      <point x="724" y="742" type="line"/>
      <point x="724" y="910" type="line"/>
      <point x="712" y="1032" type="line"/>
      <point x="720" y="1036" type="line"/>
      <point x="750" y="1006" type="line" smooth="yes"/>
      <point x="864" y="892"/>
      <point x="910" y="770"/>
      <point x="910" y="608" type="curve" smooth="yes"/>
      <point x="910" y="340"/>
      <point x="784" y="202"/>
      <point x="602" y="202" type="curve" smooth="yes"/>
      <point x="432" y="202"/>
      <point x="290" y="344"/>
      <point x="290" y="588" type="curve" smooth="yes"/>
      <point x="290" y="756"/>
      <point x="342" y="888"/>
      <point x="454" y="994" type="curve"/>
      <point x="286" y="1134" type="line"/>
      <point x="122" y="982"/>
      <point x="46" y="808"/>
      <point x="46" y="588" type="curve" smooth="yes"/>
      <point x="46" y="214"/>
      <point x="268" y="-24"/>
      <point x="602" y="-24" type="curve" smooth="yes"/>
      <point x="928" y="-24"/>
      <point x="1154" y="206"/>
      <point x="1154" y="608" type="curve" smooth="yes"/>
      <point x="1154" y="890"/>
      <point x="1050" y="1032"/>
      <point x="904" y="1160" type="curve" smooth="yes"/>
      <point x="874" y="1186" type="line"/>
      <point x="878" y="1194" type="line"/>
      <point x="994" y="1172" type="line"/>
      <point x="1154" y="1172" type="line"/>
      <point x="1154" y="1396" type="line"/>
    </contour>
  </outline>
</glyph>
<glyph name="Delta" format="1">
  <unicode hex="2206"/>
  <advance width="1200" height="1560"/>
  <outline>
    <contour>
      <point x="72" y="0" type="line" name="hr00"/>
      <point x="1128" y="0" type="line"/>
      <point x="1128" y="254" type="line"/>
      <point x="812" y="1396" type="line"/>
      <point x="388" y="1396" type="line"/>
      <point x="72" y="254" type="line"/>
    </contour>
    <contour>
      <point x="814" y="246" type="line"/>
      <point x="382" y="246" type="line"/>
      <point x="590" y="1112" type="line"/>
      <point x="606" y="1112" type="line"/>
    </contour>
  </outline>
</glyph>
<glyph name="arrowrightupcorner" format="1">
  <unicode hex="2B0F"/>
  <advance width="1200" height="1560"/>
  <outline>
    <contour>
      <point x="708" y="1274" type="line" name="hr00"/>
      <point x="230" y="796" type="line"/>
      <point x="390" y="636" type="line"/>
      <point x="510" y="756" type="line"/>
      <point x="586" y="844" type="line"/>
      <point x="594" y="842" type="line"/>
      <point x="586" y="680" type="line"/>
      <point x="586" y="452" type="line"/>
      <point x="60" y="452" type="line"/>
      <point x="60" y="208" type="line"/>
      <point x="830" y="208" type="line"/>
      <point x="830" y="680" type="line"/>
      <point x="822" y="842" type="line"/>
      <point x="830" y="844" type="line"/>
      <point x="906" y="756" type="line"/>
      <point x="1026" y="636" type="line"/>
      <point x="1186" y="796" type="line"/>
    </contour>
  </outline>
</glyph>
<glyph name="aogonek.alt01" format="1">
  <advance width="1200" height="1560"/>
  <outline>
    <contour>
      <point x="902" y="-424" type="curve" smooth="yes"/>
      <point x="1028" y="-424"/>
      <point x="1112" y="-386"/>
      <point x="1146" y="-322" type="curve"/>
      <point x="1040" y="-220" type="line"/>
      <point x="1012" y="-252"/>
      <point x="978" y="-276"/>
      <point x="930" y="-276" type="curve" smooth="yes"/>
      <point x="890" y="-276"/>
      <point x="854" y="-260"/>
      <point x="854" y="-210" type="curve" smooth="yes"/>
      <point x="854" y="-162"/>
      <point x="886" y="-120"/>
      <point x="1082" y="0" type="curve" name="hr01"/>
      <point x="1082" y="1032" type="line"/>
      <point x="786" y="1032" type="line"/>
      <point x="786" y="844" type="line"/>
      <point x="772" y="844" type="line"/>
      <point x="720" y="968"/>
      <point x="632" y="1056"/>
      <point x="466" y="1056" type="curve" smooth="yes" name="hr02"/>
      <point x="238" y="1056"/>
      <point x="78" y="890"/>
      <point x="78" y="516" type="curve" smooth="yes"/>
      <point x="78" y="142"/>
      <point x="238" y="-24"/>
      <point x="466" y="-24" type="curve" smooth="yes"/>
      <point x="632" y="-24"/>
      <point x="720" y="64"/>
      <point x="772" y="188" type="curve"/>
      <point x="786" y="188" type="line"/>
      <point x="786" y="0" type="line" name="hr03"/>
      <point x="890" y="0" type="line"/>
      <point x="892" y="-8" type="line"/>
      <point x="744" y="-76"/>
      <point x="654" y="-142"/>
      <point x="654" y="-254" type="curve" smooth="yes" name="hr04"/>
      <point x="654" y="-382"/>
      <point x="770" y="-424"/>
    </contour>
    <contour>
      <point x="594" y="206" type="curve" smooth="yes"/>
      <point x="462" y="206"/>
      <point x="386" y="292"/>
      <point x="386" y="436" type="curve"/>
      <point x="386" y="596" type="line" smooth="yes"/>
      <point x="386" y="740"/>
      <point x="462" y="826"/>
      <point x="594" y="826" type="curve" smooth="yes"/>
      <point x="698" y="826"/>
      <point x="786" y="776"/>
      <point x="786" y="668" type="curve" smooth="yes" name="hr05"/>
      <point x="786" y="364" type="line" smooth="yes"/>
      <point x="786" y="256"/>
      <point x="698" y="206"/>
    </contour>
  </outline>
</glyph>
<glyph name="asciitilde_asciitilde_greater.liga" format="1">
  <advance width="1200"/>
  <outline>
    <contour>
      <point x="480" y="686" type="curve" smooth="yes"/>
      <point x="336" y="686"/>
      <point x="294" y="886"/>
      <point x="80" y="886" type="curve" smooth="yes"/>
      <point x="-136" y="886"/>
      <point x="-178" y="686"/>
      <point x="-320" y="686" type="curve" smooth="yes"/>
      <point x="-460" y="686"/>
      <point x="-516" y="886"/>
      <point x="-720" y="886" type="curve" smooth="yes"/>
      <point x="-936" y="886"/>
      <point x="-976" y="686"/>
      <point x="-1120" y="686" type="curve" smooth="yes"/>
      <point x="-1264" y="686"/>
      <point x="-1306" y="886"/>
      <point x="-1520" y="886" type="curve" smooth="yes"/>
      <point x="-1736" y="886"/>
      <point x="-1778" y="686"/>
      <point x="-1920" y="686" type="curve" smooth="yes"/>
      <point x="-1998" y="686"/>
      <point x="-2076" y="758"/>
      <point x="-2124" y="852" type="curve"/>
      <point x="-2308" y="760" type="line"/>
      <point x="-2262" y="632"/>
      <point x="-2068" y="468"/>
      <point x="-1920" y="468" type="curve" smooth="yes"/>
      <point x="-1706" y="468"/>
      <point x="-1664" y="668"/>
      <point x="-1520" y="668" type="curve" smooth="yes"/>
      <point x="-1376" y="668"/>
      <point x="-1338" y="456"/>
      <point x="-1120" y="456" type="curve" smooth="yes"/>
      <point x="-906" y="456"/>
      <point x="-864" y="640"/>
      <point x="-720" y="640" type="curve" smooth="yes"/>
      <point x="-580" y="640"/>
      <point x="-526" y="468"/>
      <point x="-320" y="468" type="curve" smooth="yes"/>
      <point x="-106" y="468"/>
      <point x="-64" y="668"/>
      <point x="80" y="668" type="curve" smooth="yes"/>
      <point x="224" y="668"/>
      <point x="262" y="456"/>
      <point x="480" y="456" type="curve" smooth="yes"/>
      <point x="684" y="456"/>
      <point x="700" y="592"/>
      <point x="862" y="616" type="curve"/>
      <point x="862" y="856" type="line"/>
      <point x="654" y="856"/>
      <point x="620" y="686"/>
    </contour>
    <contour>
      <point x="1172" y="616" type="line" name="hr00"/>
      <point x="434" y="1328" type="line"/>
      <point x="270" y="1166" type="line"/>
      <point x="432" y="1020" type="line"/>
      <point x="850" y="634" type="line"/>
      <point x="850" y="594" type="line"/>
      <point x="434" y="224" type="line"/>
      <point x="268" y="64" type="line"/>
      <point x="432" y="-98" type="line"/>
    </contour>
  </outline>
</glyph>
<glyph name="asciitilde_equal.liga" format="1">
  <advance width="1200"/>
  <outline>
    <contour>
      <point x="-618" y="498" type="line"/>
      <point x="722" y="498" type="line"/>
      <point x="722" y="262" type="line"/>
      <point x="-618" y="262" type="line"/>
    </contour>
    <contour>
      <point x="-266" y="1116" type="curve" smooth="yes"/>
      <point x="-36" y="1116"/>
      <point x="154" y="916"/>
      <point x="310" y="916" type="curve" smooth="yes"/>
      <point x="450" y="916"/>
      <point x="502" y="966"/>
      <point x="572" y="1044" type="curve"/>
      <point x="780" y="940" type="line"/>
      <point x="688" y="794"/>
      <point x="536" y="678"/>
      <point x="304" y="678" type="curve" smooth="yes"/>
      <point x="86" y="678"/>
      <point x="-114" y="880"/>
      <point x="-272" y="880" type="curve" smooth="yes"/>
      <point x="-410" y="880"/>
      <point x="-440" y="792"/>
      <point x="-492" y="696" type="curve"/>
      <point x="-690" y="806" type="line"/>
      <point x="-638" y="908"/>
      <point x="-492" y="1116"/>
    </contour>
  </outline>
</glyph>
<glyph name="breve.case" format="1">
  <advance width="1200" height="1560"/>
  <outline>
    <contour>
      <point x="600" y="1480" type="curve" smooth="yes" name="hr00"/>
      <point x="840" y="1480"/>
      <point x="938" y="1676"/>
      <point x="988" y="1820" type="curve"/>
      <point x="822" y="1904" type="line"/>
      <point x="780" y="1840" type="line" smooth="yes"/>
      <point x="718" y="1744"/>
      <point x="678" y="1686"/>
      <point x="600" y="1686" type="curve" smooth="yes"/>
      <point x="522" y="1686"/>
      <point x="482" y="1744"/>
      <point x="420" y="1840" type="curve" smooth="yes"/>
      <point x="378" y="1904" type="line"/>
      <point x="212" y="1820" type="line"/>
      <point x="262" y="1676"/>
      <point x="360" y="1480"/>
    </contour>
    <contour>
      <point x="600" y="1396" type="move" name="_top"/>
    </contour>
  </outline>
</glyph>
<glyph name="brevegrave.case" format="1">
  <advance width="0" height="1560"/>
  <outline>
    <contour>
      <point x="0" y="1466" type="curve" smooth="yes" name="hr00"/>
      <point x="244" y="1466"/>
      <point x="352" y="1628"/>
      <point x="404" y="1764" type="curve"/>
      <point x="254" y="1858" type="line"/>
      <point x="212" y="1802" type="line" smooth="yes"/>
      <point x="134" y="1698"/>
      <point x="84" y="1668"/>
      <point x="0" y="1668" type="curve" smooth="yes"/>
      <point x="-84" y="1668"/>
      <point x="-134" y="1698"/>
      <point x="-212" y="1802" type="curve" smooth="yes"/>
      <point x="-254" y="1858" type="line"/>
      <point x="-404" y="1764" type="line"/>
      <point x="-352" y="1628"/>
      <point x="-244" y="1466"/>
    </contour>
    <contour>
      <point x="-38" y="1788" type="line"/>
      <point x="120" y="1866" type="line"/>
      <point x="-78" y="2254" type="line"/>
      <point x="-306" y="2140" type="line"/>
    </contour>
    <contour>
      <point x="0" y="1396" type="move" name="_top"/>
    </contour>
  </outline>
</glyph>
<glyph name="circumflex.case" format="1">
  <advance width="1200" height="1560"/>
  <outline>
    <contour>
      <point x="476" y="1912" type="line" name="hr00"/>
      <point x="212" y="1594" type="line"/>
      <point x="354" y="1478" type="line"/>
      <point x="596" y="1708" type="line"/>
      <point x="838" y="1478" type="line"/>
      <point x="988" y="1594" type="line"/>
      <point x="724" y="1912" type="line"/>
    </contour>
    <contour>
      <point x="600" y="1396" type="move" name="_top"/>
    </contour>
  </outline>
</glyph>
<glyph name="circumflexbreve.case" format="1">
  <advance width="0" height="1560"/>
  <outline>
    <contour>
      <point x="-96" y="1832" type="line" name="hr00"/>
      <point x="-374" y="1598" type="line"/>
      <point x="-256" y="1468" type="line"/>
      <point x="-2" y="1634" type="line"/>
      <point x="252" y="1468" type="line"/>
      <point x="374" y="1598" type="line"/>
      <point x="96" y="1832" type="line"/>
    </contour>
    <contour>
      <point x="0" y="1878" type="curve" smooth="yes"/>
      <point x="226" y="1878"/>
      <point x="326" y="2024"/>
      <point x="374" y="2146" type="curve"/>
      <point x="236" y="2234" type="line"/>
      <point x="196" y="2182" type="line" smooth="yes"/>
      <point x="128" y="2094"/>
      <point x="76" y="2066"/>
      <point x="0" y="2066" type="curve" smooth="yes"/>
      <point x="-76" y="2066"/>
      <point x="-128" y="2094"/>
      <point x="-196" y="2182" type="curve" smooth="yes"/>
      <point x="-236" y="2234" type="line"/>
      <point x="-374" y="2146" type="line"/>
      <point x="-326" y="2024"/>
      <point x="-226" y="1878"/>
    </contour>
    <contour>
      <point x="0" y="1396" type="move" name="_top"/>
    </contour>
  </outline>
</glyph>
<glyph name="circumflexgrave" format="1">
  <advance width="0" height="1560"/>
  <outline>
    <contour>
      <point x="-346" y="1448" type="line" name="hr00"/>
      <point x="-188" y="1526" type="line"/>
      <point x="-386" y="1914" type="line"/>
      <point x="-614" y="1800" type="line"/>
    </contour>
    <contour>
      <point x="-94" y="1544" type="line"/>
      <point x="-384" y="1250" type="line"/>
      <point x="-252" y="1122" type="line"/>
      <point x="-4" y="1330" type="line"/>
      <point x="244" y="1122" type="line"/>
      <point x="384" y="1250" type="line"/>
      <point x="94" y="1544" type="line"/>
    </contour>
    <contour>
      <point x="0" y="1032" type="move" name="_top"/>
    </contour>
  </outline>
</glyph>
<glyph name="circumflexhook" format="1">
  <advance width="0" height="1560"/>
  <outline>
    <contour>
      <point x="76" y="1684" type="line" name="hr00"/>
      <point x="314" y="1684" type="line"/>
      <point x="228" y="1490" type="line"/>
      <point x="360" y="1422" type="line"/>
      <point x="414" y="1488" type="line" smooth="yes"/>
      <point x="480" y="1568"/>
      <point x="540" y="1662"/>
      <point x="540" y="1742" type="curve" smooth="yes"/>
      <point x="540" y="1818"/>
      <point x="492" y="1886"/>
      <point x="344" y="1886" type="curve" smooth="yes"/>
      <point x="76" y="1886" type="line"/>
    </contour>
    <contour>
      <point x="-94" y="1544" type="line"/>
      <point x="-384" y="1250" type="line"/>
      <point x="-252" y="1122" type="line"/>
      <point x="-4" y="1330" type="line"/>
      <point x="244" y="1122" type="line"/>
      <point x="384" y="1250" type="line"/>
      <point x="94" y="1544" type="line"/>
    </contour>
    <contour>
      <point x="0" y="1032" type="move" name="_top"/>
    </contour>
  </outline>
</glyph>
<glyph name="dieresismacron.case" format="1">
  <advance width="0" height="1560"/>
  <outline>
    <contour>
      <point x="-306" y="1894" type="line" name="hr00"/>
      <point x="306" y="1894" type="line"/>
      <point x="306" y="2100" type="line"/>
      <point x="-306" y="2100" type="line"/>
    </contour>
    <contour>
      <point x="-220" y="1496" type="curve" smooth="yes"/>
      <point x="-102" y="1496"/>
      <point x="-60" y="1552"/>
      <point x="-60" y="1620" type="curve" smooth="yes"/>
      <point x="-60" y="1674" type="line" smooth="yes"/>
      <point x="-60" y="1744"/>
      <point x="-102" y="1798"/>
      <point x="-220" y="1798" type="curve" smooth="yes"/>
      <point x="-340" y="1798"/>
      <point x="-382" y="1744"/>
      <point x="-382" y="1674" type="curve" smooth="yes"/>
      <point x="-382" y="1620" type="line" smooth="yes"/>
      <point x="-382" y="1552"/>
      <point x="-340" y="1496"/>
    </contour>
    <contour>
      <point x="220" y="1496" type="curve" smooth="yes"/>
      <point x="340" y="1496"/>
      <point x="382" y="1552"/>
      <point x="382" y="1620" type="curve" smooth="yes"/>
      <point x="382" y="1674" type="line" smooth="yes"/>
      <point x="382" y="1744"/>
      <point x="340" y="1798"/>
      <point x="220" y="1798" type="curve" smooth="yes"/>
      <point x="102" y="1798"/>
      <point x="60" y="1744"/>
      <point x="60" y="1674" type="curve" smooth="yes"/>
      <point x="60" y="1620" type="line" smooth="yes"/>
      <point x="60" y="1552"/>
      <point x="102" y="1496"/>
    </contour>
    <contour>
      <point x="0" y="1396" type="move" name="_top"/>
    </contour>
  </outline>
</glyph>
<glyph name="eight.numr" format="1">
  <advance width="1200" height="1560"/>
  <outline>
    <contour>
      <point x="600" y="714" type="curve" smooth="yes"/>
      <point x="770" y="714"/>
      <point x="874" y="796"/>
      <point x="874" y="908" type="curve" smooth="yes"/>
      <point x="874" y="996"/>
      <point x="810" y="1046"/>
      <point x="728" y="1066" type="curve"/>
      <point x="728" y="1074" type="line"/>
      <point x="798" y="1096"/>
      <point x="854" y="1144"/>
      <point x="854" y="1226" type="curve" smooth="yes" name="hr01"/>
      <point x="854" y="1330"/>
      <point x="764" y="1408"/>
      <point x="600" y="1408" type="curve" smooth="yes"/>
      <point x="436" y="1408"/>
      <point x="346" y="1330"/>
      <point x="346" y="1226" type="curve" smooth="yes"/>
      <point x="346" y="1144"/>
      <point x="402" y="1096"/>
      <point x="472" y="1074" type="curve"/>
      <point x="472" y="1066" type="line"/>
      <point x="390" y="1046"/>
      <point x="326" y="996"/>
      <point x="326" y="908" type="curve" smooth="yes" name="hr02"/>
      <point x="326" y="796"/>
      <point x="430" y="714"/>
    </contour>
    <contour>
      <point x="600" y="1120" type="curve" smooth="yes"/>
      <point x="544" y="1120"/>
      <point x="510" y="1152"/>
      <point x="510" y="1196" type="curve" smooth="yes" name="hr03"/>
      <point x="510" y="1212" type="line" smooth="yes"/>
      <point x="510" y="1254"/>
      <point x="542" y="1284"/>
      <point x="600" y="1284" type="curve" smooth="yes"/>
      <point x="658" y="1284"/>
      <point x="690" y="1254"/>
      <point x="690" y="1212" type="curve" smooth="yes"/>
      <point x="690" y="1196" type="line" smooth="yes"/>
      <point x="690" y="1152"/>
      <point x="656" y="1120"/>
    </contour>
    <contour>
      <point x="600" y="838" type="curve" smooth="yes"/>
      <point x="540" y="838"/>
      <point x="508" y="870"/>
      <point x="508" y="914" type="curve" smooth="yes" name="hr04"/>
      <point x="508" y="930" type="line" smooth="yes"/>
      <point x="508" y="972"/>
      <point x="540" y="1006"/>
      <point x="600" y="1006" type="curve" smooth="yes"/>
      <point x="660" y="1006"/>
      <point x="692" y="972"/>
      <point x="692" y="930" type="curve" smooth="yes"/>
      <point x="692" y="914" type="line" smooth="yes"/>
      <point x="692" y="870"/>
      <point x="660" y="838"/>
    </contour>
  </outline>
</glyph>
<glyph name="exclam_equal.liga" format="1">
  <advance width="1200"/>
  <outline>
    <contour>
      <point x="1074" y="722" type="line" name="hr00.1"/>
      <point x="1074" y="958" type="line"/>
      <point x="-1082" y="958" type="line"/>
      <point x="-1082" y="722" type="line"/>
    </contour>
    <contour>
      <point x="1074" y="262" type="line"/>
      <point x="1074" y="498" type="line"/>
      <point x="-1082" y="498" type="line"/>
      <point x="-1082" y="262" type="line"/>
    </contour>
    <contour>
      <point x="480" y="1228" type="line" name="hr00.1"/>
      <point x="276" y="1346" type="line"/>
      <point x="-480" y="26" type="line"/>
      <point x="-274" y="-92" type="line"/>
    </contour>
  </outline>
</glyph>
<glyph name="four.numr" format="1">
  <advance width="1200" height="1560"/>
  <outline>
    <contour>
      <point x="624" y="726" type="line" name="hr00"/>
      <point x="792" y="726" type="line"/>
      <point x="792" y="852" type="line"/>
      <point x="880" y="852" type="line"/>
      <point x="880" y="974" type="line"/>
      <point x="792" y="974" type="line"/>
      <point x="792" y="1396" type="line"/>
      <point x="584" y="1396" type="line"/>
      <point x="322" y="1000" type="line"/>
      <point x="322" y="852" type="line"/>
      <point x="624" y="852" type="line"/>
    </contour>
    <contour>
      <point x="446" y="974" type="line"/>
      <point x="614" y="1226" type="line"/>
      <point x="624" y="1226" type="line"/>
      <point x="624" y="974" type="line"/>
    </contour>
  </outline>
</glyph>
<glyph name="hungarumlaut.case" format="1">
  <advance width="1200" height="1560"/>
  <outline>
    <contour>
      <point x="688" y="1832" type="line" name="hr00"/>
      <point x="456" y="1946" type="line"/>
      <point x="258" y="1558" type="line"/>
      <point x="420" y="1480" type="line"/>
    </contour>
    <contour>
      <point x="1098" y="1832" type="line"/>
      <point x="866" y="1946" type="line"/>
      <point x="668" y="1558" type="line"/>
      <point x="830" y="1480" type="line"/>
    </contour>
    <contour>
      <point x="600" y="1396" type="move" name="_top"/>
    </contour>
  </outline>
</glyph>
<glyph name="ijacute" format="1">
  <advance width="1200" height="1560"/>
  <outline>
    <contour>
      <point x="148" y="0" type="line" name="hr00"/>
      <point x="444" y="0" type="line"/>
      <point x="444" y="1032" type="line"/>
      <point x="148" y="1032" type="line"/>
    </contour>
    <contour>
      <point x="444" y="-400" type="line"/>
      <point x="736" y="-400" type="line" smooth="yes"/>
      <point x="950" y="-400"/>
      <point x="1052" y="-276"/>
      <point x="1052" y="-102" type="curve" smooth="yes"/>
      <point x="1052" y="1032" type="line"/>
      <point x="756" y="1032" type="line"/>
      <point x="756" y="-170" type="line"/>
      <point x="444" y="-170" type="line"/>
    </contour>
    <contour>
      <point x="328" y="1140" type="line"/>
      <point x="596" y="1492" type="line"/>
      <point x="350" y="1614" type="line"/>
      <point x="152" y="1226" type="line"/>
    </contour>
    <contour>
      <point x="936" y="1140" type="line"/>
      <point x="1204" y="1492" type="line"/>
      <point x="958" y="1614" type="line"/>
      <point x="760" y="1226" type="line"/>
    </contour>
  </outline>
</glyph>
<glyph name="less_equal_greater.liga" format="1">
  <advance width="1200" height="780"/>
  <outline>
    <contour>
      <point x="-2111.77" y="608" type="line" name="hr00"/>
      <point x="-1373.77" y="1320" type="line"/>
      <point x="-1209.77" y="1158" type="line"/>
      <point x="-1371.77" y="1012" type="line"/>
      <point x="-1533.77" y="914" type="line"/>
      <point x="-1629.77" y="760" type="line"/>
      <point x="-1789.77" y="620" type="line"/>
      <point x="-1789.77" y="596" type="line"/>
      <point x="-1633.77" y="466" type="line"/>
      <point x="-1533.77" y="316" type="line"/>
      <point x="-1373.77" y="216" type="line"/>
      <point x="-1207.77" y="56" type="line"/>
      <point x="-1371.77" y="-106" type="line"/>
    </contour>
    <contour>
      <point x="1146.23" y="608" type="line" name="hr00.1"/>
      <point x="406.232" y="-106" type="line"/>
      <point x="242.232" y="56" type="line"/>
      <point x="408.232" y="216" type="line"/>
      <point x="568.232" y="316" type="line"/>
      <point x="668.232" y="466" type="line"/>
      <point x="824.232" y="596" type="line"/>
      <point x="824.232" y="620" type="line"/>
      <point x="664.232" y="760" type="line"/>
      <point x="568.232" y="914" type="line"/>
      <point x="406.232" y="1012" type="line"/>
      <point x="244.232" y="1158" type="line"/>
      <point x="408.232" y="1320" type="line"/>
    </contour>
    <contour>
      <point x="-1723.77" y="958" type="line"/>
      <point x="736.232" y="958" type="line"/>
      <point x="736.232" y="722" type="line"/>
      <point x="-1723.77" y="722" type="line"/>
    </contour>
    <contour>
      <point x="-1723.77" y="498" type="line"/>
      <point x="736.232" y="498" type="line"/>
      <point x="736.232" y="262" type="line"/>
      <point x="-1723.77" y="262" type="line"/>
    </contour>
  </outline>
</glyph>
<glyph name="less_slash.liga" format="1">
  <advance width="2400" height="780"/>
  <outline>
    <contour>
      <point x="1444" y="-154" type="line" name="hr00"/>
      <point x="1444" y="122" type="line"/>
      <point x="536" y="602" type="line"/>
      <point x="536" y="618" type="line"/>
      <point x="1130" y="932" type="line"/>
      <point x="1130" y="1208" type="line"/>
      <point x="270" y="748" type="line"/>
      <point x="270" y="472" type="line"/>
    </contour>
    <contour>
      <point x="1512" y="-276" type="line" name="hr00.1"/>
      <point x="2154" y="1520" type="line"/>
      <point x="1888" y="1520" type="line"/>
      <point x="1246" y="-276" type="line"/>
    </contour>
  </outline>
</glyph>
<glyph name="macron.case" format="1">
  <advance width="1200" height="1560"/>
  <outline>
    <contour>
      <point x="294" y="1570" type="line" name="hr00"/>
      <point x="906" y="1570" type="line"/>
      <point x="906" y="1776" type="line"/>
      <point x="294" y="1776" type="line"/>
    </contour>
    <contour>
      <point x="600" y="1396" type="move" name="_top"/>
    </contour>
  </outline>
</glyph>
<glyph name="nine.dnom" format="1">
  <advance width="1200" height="1560"/>
  <outline>
    <contour>
      <point x="366" y="0" type="curve" name="hr00"/>
      <point x="614" y="0" type="line"/>
      <point x="746" y="80"/>
      <point x="872" y="232"/>
      <point x="872" y="414" type="curve" smooth="yes"/>
      <point x="872" y="574"/>
      <point x="772" y="682"/>
      <point x="596" y="682" type="curve" smooth="yes"/>
      <point x="424" y="682"/>
      <point x="316" y="582"/>
      <point x="316" y="444" type="curve" smooth="yes"/>
      <point x="316" y="318"/>
      <point x="406" y="236"/>
      <point x="520" y="236" type="curve" smooth="yes"/>
      <point x="624" y="236"/>
      <point x="672" y="302"/>
      <point x="692" y="344" type="curve"/>
      <point x="704" y="340" type="line"/>
      <point x="680" y="220"/>
      <point x="558" y="124"/>
    </contour>
    <contour>
      <point x="590" y="354" type="curve" smooth="yes"/>
      <point x="522" y="354"/>
      <point x="496" y="392"/>
      <point x="496" y="446" type="curve" smooth="yes"/>
      <point x="496" y="466" type="line" smooth="yes"/>
      <point x="496" y="520"/>
      <point x="522" y="558"/>
      <point x="590" y="558" type="curve" smooth="yes"/>
      <point x="658" y="558"/>
      <point x="684" y="520"/>
      <point x="684" y="466" type="curve" smooth="yes"/>
      <point x="684" y="446" type="line" smooth="yes"/>
      <point x="684" y="392"/>
      <point x="658" y="354"/>
    </contour>
  </outline>
</glyph>
<glyph name="seven.numr" format="1">
  <advance width="1200" height="1560"/>
  <outline>
    <contour>
      <point x="460" y="726" type="line" name="hr00"/>
      <point x="650" y="726" type="line"/>
      <point x="866" y="1250" type="line"/>
      <point x="866" y="1396" type="line"/>
      <point x="344" y="1396" type="line"/>
      <point x="344" y="1130" type="line"/>
      <point x="490" y="1130" type="line"/>
      <point x="490" y="1264" type="line"/>
      <point x="688" y="1264" type="line"/>
    </contour>
  </outline>
</glyph>
<glyph name="six.numr" format="1">
  <advance width="1200" height="1560"/>
  <outline>
    <contour>
      <point x="604" y="714" type="curve" smooth="yes" name="hr00"/>
      <point x="776" y="714"/>
      <point x="884" y="814"/>
      <point x="884" y="952" type="curve" smooth="yes"/>
      <point x="884" y="1078"/>
      <point x="794" y="1160"/>
      <point x="680" y="1160" type="curve" smooth="yes"/>
      <point x="576" y="1160"/>
      <point x="528" y="1094"/>
      <point x="508" y="1052" type="curve"/>
      <point x="496" y="1056" type="line"/>
      <point x="520" y="1176"/>
      <point x="642" y="1272"/>
      <point x="834" y="1396" type="curve"/>
      <point x="586" y="1396" type="line"/>
      <point x="454" y="1316"/>
      <point x="328" y="1164"/>
      <point x="328" y="982" type="curve" smooth="yes"/>
      <point x="328" y="822"/>
      <point x="428" y="714"/>
    </contour>
    <contour>
      <point x="610" y="838" type="curve" smooth="yes"/>
      <point x="542" y="838"/>
      <point x="516" y="876"/>
      <point x="516" y="930" type="curve" smooth="yes"/>
      <point x="516" y="950" type="line" smooth="yes"/>
      <point x="516" y="1004"/>
      <point x="542" y="1042"/>
      <point x="610" y="1042" type="curve" smooth="yes"/>
      <point x="678" y="1042"/>
      <point x="704" y="1004"/>
      <point x="704" y="950" type="curve" smooth="yes"/>
      <point x="704" y="930" type="line" smooth="yes"/>
      <point x="704" y="876"/>
      <point x="678" y="838"/>
    </contour>
  </outline>
</glyph>
<glyph name="three.numr" format="1">
  <advance width="1200" height="1560"/>
  <outline>
    <contour>
      <point x="596" y="714" type="curve" smooth="yes"/>
      <point x="764" y="714"/>
      <point x="876" y="792"/>
      <point x="876" y="914" type="curve" smooth="yes"/>
      <point x="876" y="1002"/>
      <point x="816" y="1052"/>
      <point x="722" y="1066" type="curve"/>
      <point x="722" y="1074" type="line"/>
      <point x="798" y="1084"/>
      <point x="864" y="1140"/>
      <point x="864" y="1226" type="curve" smooth="yes" name="hr01"/>
      <point x="864" y="1334"/>
      <point x="762" y="1408"/>
      <point x="594" y="1408" type="curve" smooth="yes"/>
      <point x="466" y="1408"/>
      <point x="398" y="1366"/>
      <point x="334" y="1294" type="curve"/>
      <point x="438" y="1194" type="line"/>
      <point x="478" y="1246"/>
      <point x="536" y="1276"/>
      <point x="594" y="1276" type="curve" smooth="yes"/>
      <point x="648" y="1276"/>
      <point x="680" y="1250"/>
      <point x="680" y="1216" type="curve" smooth="yes"/>
      <point x="680" y="1200" type="line" smooth="yes"/>
      <point x="680" y="1162"/>
      <point x="650" y="1132"/>
      <point x="576" y="1132" type="curve" smooth="yes"/>
      <point x="514" y="1132" type="line"/>
      <point x="514" y="1006" type="line"/>
      <point x="568" y="1006" type="line" smooth="yes"/>
      <point x="638" y="1006"/>
      <point x="688" y="980"/>
      <point x="688" y="930" type="curve" smooth="yes" name="hr02"/>
      <point x="688" y="914" type="line" smooth="yes"/>
      <point x="688" y="872"/>
      <point x="656" y="846"/>
      <point x="592" y="846" type="curve" smooth="yes"/>
      <point x="520" y="846"/>
      <point x="474" y="880"/>
      <point x="446" y="930" type="curve"/>
      <point x="320" y="846" type="line"/>
      <point x="364" y="778"/>
      <point x="444" y="714"/>
    </contour>
  </outline>
</glyph>
